<?xml version="1.0" encoding="UTF-8"?>
<svg width="16px" height="16px" viewBox="0 0 16 16" version="1.1" xmlns="http://www.w3.org/2000/svg" xmlns:xlink="http://www.w3.org/1999/xlink">
    <title>2742D639-C867-4C56-B0FA-12CB0D2985F0@1x</title>
    <defs>
        <path d="M14.0000001,6.66633959 C14.1768251,6.66638558 14.3464211,6.59616246 14.4714554,6.47112823 C14.5964896,6.34609401 14.6666668,6.17649801 14.6666668,5.99967292 L14.6666668,3.99967292 C14.6666668,3.71278683 14.4831586,3.45807057 14.2109401,3.36751292 L8.21094006,1.36751292 C8.07400557,1.32194014 7.92599454,1.32194014 7.78906006,1.36751292 L1.78906006,3.36751292 C1.51684148,3.45807057 1.33333333,3.71278683 1.33333333,3.99967292 L1.33333333,5.99967292 C1.33333333,6.17649801 1.40351052,6.34609401 1.52854475,6.47112823 C1.65357897,6.59616246 1.82317497,6.66638558 2.00000006,6.66633959 L2.66666672,6.66633959 L2.66666672,11.4558529 C1.86987627,11.7365137 1.33593223,12.4882348 1.33333333,13.3330063 L1.33333333,14.6663396 C1.33333333,14.8431647 1.40351052,15.0127607 1.52854475,15.1377949 C1.65357897,15.2628291 1.82317497,15.3330063 2.00000006,15.3330063 L14.0000001,15.3330063 C14.1768251,15.3330063 14.3464211,15.2628291 14.4714554,15.1377949 C14.5964896,15.0127607 14.6666668,14.8431647 14.6666668,14.6663396 L14.6666668,13.3330063 C14.6640679,12.4882348 14.1301238,11.7365137 13.3333333,11.4558529 L13.3333333,6.66633959 L14.0000001,6.66633959 Z M13.3333334,13.9996729 L2.66666672,13.9996729 L2.66666672,13.3330063 C2.66703421,12.9649687 2.96529588,12.6667071 3.33333339,12.6663396 L12.6666667,12.6663396 C13.0347042,12.6667071 13.3329659,12.9649687 13.3333334,13.3330063 L13.3333334,13.9996729 Z M4.00000006,11.3330063 L4.00000006,6.66633959 L5.33333339,6.66633959 L5.33333339,11.3330063 L4.00000006,11.3330063 Z M6.66666672,11.3330063 L6.66666672,6.66633959 L9.33333339,6.66633959 L9.33333339,11.3330063 L6.66666672,11.3330063 Z M10.6666667,11.3330063 L10.6666667,6.66633959 L12.0000001,6.66633959 L12.0000001,11.3330063 L10.6666667,11.3330063 Z M2.66666672,5.33300625 L2.66666672,4.48013959 L8.00000006,2.70213959 L13.3333334,4.48013959 L13.3333334,5.33300625 L2.66666672,5.33300625 Z" id="path-1"></path>
    </defs>
    <g id="Stanbic/Kwara-Demo" stroke="none" stroke-width="1" fill="none" fill-rule="evenodd">
        <g id="Connect.iv" transform="translate(-43.000000, -566.000000)">
            <g id="Card" transform="translate(15.000000, 538.000000)">
                <g id="Group-2" transform="translate(16.000000, 16.000000)">
                    <g id="sun" transform="translate(12.000000, 12.000000)">
                        <mask id="mask-2" fill="white">
                            <use xlink:href="#path-1"></use>
                        </mask>
                        <use id="Shape" fill="#056489" fill-rule="nonzero" xlink:href="#path-1"></use>
                        <g id="COLOR/-black" mask="url(#mask-2)" fill="#056489">
                            <rect id="Rectangle" x="0" y="0" width="16" height="16"></rect>
                        </g>
                    </g>
                </g>
            </g>
        </g>
    </g>
</svg>