<?xml version="1.0" encoding="UTF-8"?>
<svg width="16px" height="14px" viewBox="0 0 16 14" version="1.1" xmlns="http://www.w3.org/2000/svg" xmlns:xlink="http://www.w3.org/1999/xlink">
    <title>590ACD86-797F-48DB-BBC9-4D5FAEFDCD4A@1x</title>
    <defs>
        <path d="M9.33333333,10.5584816 L5.96578887,0.455848156 C5.76318968,-0.151949385 4.90347698,-0.151949385 4.7008778,0.455848156 L2.85282719,6 L0.666666667,6 C0.298476833,6 0,6.29847683 0,6.66666667 C0,7.0348565 0.298476833,7.33333333 0.666666667,7.33333333 L3.33333333,7.33333333 C3.62028694,7.33333333 3.87504617,7.14971327 3.96578887,6.87748518 L5.33333333,2.77485177 L8.7008778,12.8774852 C8.90347698,13.4852827 9.76318968,13.4852827 9.96578887,12.8774852 L11.8138395,7.33333333 L14,7.33333333 C14.3681898,7.33333333 14.6666667,7.0348565 14.6666667,6.66666667 C14.6666667,6.29847683 14.3681898,6 14,6 L11.3333333,6 C11.0463797,6 10.7916205,6.18362006 10.7008778,6.45584816 L9.33333333,10.5584816 Z" id="path-1"></path>
    </defs>
    <g id="Stanbic/Kwara-Demo" stroke="none" stroke-width="1" fill="none" fill-rule="evenodd">
        <g id="Connect.iv" transform="translate(-43.000000, -441.000000)">
            <g id="Card" transform="translate(15.000000, 412.000000)">
                <g id="Group-2" transform="translate(16.000000, 16.000000)">
                    <g id="sun" transform="translate(12.666667, 13.333333)">
                        <mask id="mask-2" fill="white">
                            <use xlink:href="#path-1"></use>
                        </mask>
                        <use id="Shape" fill="#056489" fill-rule="nonzero" xlink:href="#path-1"></use>
                        <g id="🎨Color" mask="url(#mask-2)" fill="#056489">
                            <g transform="translate(-0.666667, -1.333333)" id="Rectangle">
                                <rect x="0" y="0" width="16" height="16"></rect>
                            </g>
                        </g>
                    </g>
                </g>
            </g>
        </g>
    </g>
</svg>