<?xml version="1.0" encoding="UTF-8"?>
<svg width="80px" height="77px" viewBox="0 0 80 77" version="1.1" xmlns="http://www.w3.org/2000/svg" xmlns:xlink="http://www.w3.org/1999/xlink">
    <title>7350B172-8DBC-4550-97E0-A9E0733342D3@1x</title>
    <g id="Stanbic/Kwara-Demo" stroke="none" stroke-width="1" fill="none" fill-rule="evenodd">
        <g id="Connect.success.ii" transform="translate(-140.000000, -231.000000)">
            <g id="BAA-icon" transform="translate(140.000000, 231.000000)">
                <g id="Pie-50/30/20" transform="translate(39.000000, 0.999999)">
                    <path d="M19.9317361,0.0750013503 L19.931153,38.9250002 C8.92070337,38.9092362 0,30.2184132 0,19.5000115 C0,8.77187463 8.93691546,0.0750013503 19.9611594,0.0750013503 L19.9317361,0.0750013503 Z" id="Mask" fill="#A4DFF2"></path>
                    <path d="M35.3629127,6.60010852 C38.0562841,9.76654908 39.7570958,13.7680148 39.998752,18.1485154 L39.998752,20.3115483 C39.4241565,30.7272395 30.6000104,39.0000009 19.7987168,39.0000009 C19.7889904,39.0000009 19.7792656,38.9999942 19.7695425,38.9999808 L19.7688976,23.7129834 Z" id="Combined-Shape" fill="#FBC586"></path>
                    <path d="M19.7680052,-2.1043103e-07 C25.9111141,0.0111684377 31.4534089,2.52239864 35.3845508,6.54719088 L19.7688561,23.6250011 Z" id="Combined-Shape" fill="#84CD8F"></path>
                </g>
                <path d="M58.7531985,0 C49.2340113,0 41.2585668,6.30012353 38.5702077,14.8954001 L4.64560194,14.8954001 C2.13713305,14.8954001 0.0975966794,16.9232703 0.0975966794,19.4173911 L0.0975966794,32.7310652 C0.0975966794,34.0129041 0.648276158,35.1571034 1.51274856,35.9818524 C0.598306709,36.8066015 0,37.9692776 0,39.290863 L0,52.6045381 C0,53.9062505 0.574493094,55.059687 1.46395019,55.884436 C0.574493094,56.7091851 0,57.8626216 0,59.164334 L0,72.4780101 C0,74.9721308 2.03953637,77 4.54800526,77 L60.4123458,77 C62.9208147,77 64.9603498,74.9721308 64.9603498,72.4780101 L64.9603498,59.164334 C64.9603498,57.8626216 64.3858555,56.7091851 63.4963984,55.884436 C64.3858555,55.059687 64.9603498,53.9062505 64.9603498,52.6045381 L64.9603498,41.2025206 C73.635055,38.5444437 80,30.6001783 80,21.1155639 C79.9950031,9.47467765 70.4660493,0 58.7531985,0 Z M58.7531985,2.48418389 C69.0868911,2.48418389 77.491761,10.8459472 77.491761,21.1155639 C77.491761,31.3851805 69.0868911,39.7469438 58.7531985,39.7469438 C48.4195084,39.7469438 40.0146386,31.3851805 40.0146386,21.1155639 C40.0146386,10.8459472 48.4195084,2.48418389 58.7531985,2.48418389 Z M4.64560194,17.3795841 L37.8967907,17.3795841 C37.6769249,18.5968343 37.5161636,19.8337249 37.5161636,21.1155639 C37.5161636,26.3472553 39.5107276,31.0773747 42.6887878,34.7688721 L4.64560194,34.7688721 C3.51129429,34.7688721 2.59607167,33.8539158 2.59607167,32.7310652 L2.59607167,19.4173911 C2.59607167,18.2895715 3.51629124,17.3795841 4.64560194,17.3795841 Z M8.76418156,26.0742281 C8.76418156,26.7602166 9.32028509,27.3163201 10.0062736,27.3163201 L22.5220896,27.3163201 C23.208078,27.3163201 23.7641816,26.7602166 23.7641816,26.0742281 C23.7641816,25.3882397 23.208078,24.8321361 22.5220896,24.8321361 L10.0062736,24.8321361 C9.32028509,24.8321361 8.76418156,25.3882397 8.76418156,26.0742281 Z M4.54800526,37.2530561 L4.65536158,37.2530561 L44.8261547,37.2530561 L45.226301,37.2530561 C48.9140501,40.3135708 53.5961163,42.2311278 58.7629626,42.2311278 C60.0321879,42.2311278 61.2576099,42.0760218 62.4618748,41.862382 L62.4618748,52.6045381 C62.4618748,53.7323576 61.5416565,54.6423441 60.4123458,54.6423441 L4.54800526,54.6423441 C3.41369761,54.6423441 2.49847499,53.7273893 2.49847499,52.6045381 L2.49847499,39.290863 C2.49847499,38.1630435 3.41869456,37.2530561 4.54800526,37.2530561 Z M53.8148078,44.4533084 C52.9876484,44.4565186 52.319419,45.1252685 52.3215792,45.9477001 C52.3194196,46.7701313 52.9876488,47.4388806 53.8148078,47.4420908 C54.2137428,47.4431247 54.5966381,47.2860125 54.8787286,47.0055354 C55.1608192,46.7250584 55.3188353,46.3443532 55.3177954,45.9477001 C55.3188356,45.5510468 55.1608196,45.1703414 54.878729,44.8898641 C54.5966384,44.6093868 54.2137429,44.4522744 53.8148078,44.4533084 Z M10.0134191,45.9477001 C10.0134191,46.6336885 10.5695226,47.1897921 11.2555111,47.1897921 L28.759127,47.1897921 C29.4451155,47.1897921 30.001219,46.6336885 30.001219,45.9477001 C30.001219,45.2617116 29.4451155,44.7056081 28.759127,44.7056081 L11.2555111,44.7056081 C10.5695226,44.7056081 10.0134191,45.2617116 10.0134191,45.9477001 Z M4.54800526,57.126528 L60.4123458,57.126528 C61.5466535,57.126528 62.4618748,58.0414828 62.4618748,59.164334 L62.4618748,72.4780101 C62.4618748,73.6058296 61.5416565,74.515816 60.4123458,74.515816 L4.54800526,74.515816 C3.41369761,74.515816 2.49847499,73.6008612 2.49847499,72.4780101 L2.49847499,59.164334 C2.49847499,58.0365145 3.41869456,57.126528 4.54800526,57.126528 Z M53.6781762,64.3267813 C52.8510152,64.3299888 52.182783,64.9987389 52.1849426,65.821172 C52.182783,66.6436052 52.8510152,67.3123553 53.6781762,67.3155627 C54.0771112,67.3165967 54.4600065,67.1594844 54.742097,66.8790074 C55.0241876,66.5985303 55.1822037,66.2178251 55.1811638,65.821172 C55.1822037,65.4245189 55.0241876,65.0438137 54.742097,64.7633367 C54.4600065,64.4828596 54.0771112,64.3257474 53.6781762,64.3267813 Z M10.0134191,65.821172 C10.0134191,66.5071605 10.5695226,67.063264 11.2555111,67.063264 L21.7713271,67.063264 C22.4573155,67.063264 23.0134191,66.5071605 23.0134191,65.821172 C23.0134191,65.1351836 22.4573155,64.57908 21.7713271,64.57908 L11.2555111,64.57908 C10.5695226,64.57908 10.0134191,65.1351836 10.0134191,65.821172 Z M26.0134191,65.821172 C26.0134191,66.5071605 26.5695226,67.063264 27.2555111,67.063264 L32.7713271,67.063264 C33.4573155,67.063264 34.0134191,66.5071605 34.0134191,65.821172 C34.0134191,65.1351836 33.4573155,64.57908 32.7713271,64.57908 L27.2555111,64.57908 C26.5695226,64.57908 26.0134191,65.1351836 26.0134191,65.821172 Z" id="Icon" fill="#CDE0E7" fill-rule="nonzero"></path>
            </g>
        </g>
    </g>
</svg>