<?xml version="1.0" encoding="UTF-8"?>
<svg width="360px" height="760px" viewBox="0 0 360 760" version="1.1" xmlns="http://www.w3.org/2000/svg" xmlns:xlink="http://www.w3.org/1999/xlink">
    <title>Feature-graphic #2@1x</title>
    <defs>
        <rect id="path-1" x="0" y="0" width="360" height="760"></rect>
        <radialGradient cx="-19.417421%" cy="-60.3583297%" fx="-19.417421%" fy="-60.3583297%" r="618.080816%" gradientTransform="translate(-0.194174,-0.603583),scale(1.000000,0.473684),rotate(73.726041),translate(0.194174,0.603583)" id="radialGradient-3">
            <stop stop-color="#10B0D7" offset="0%"></stop>
            <stop stop-color="#106A8D" offset="100%"></stop>
        </radialGradient>
        <rect id="path-4" x="0" y="0" width="360" height="760"></rect>
    </defs>
    <g id="Stanbic/Kwara-Demo" stroke="none" stroke-width="1" fill="none" fill-rule="evenodd">
        <g id="Feature-graphic-#2">
            <rect id="Rectangle" fill="#FFFFFF" x="0" y="0" width="360" height="760"></rect>
            <mask id="mask-2" fill="white">
                <use xlink:href="#path-1"></use>
            </mask>
            <g id="Rectangle"></g>
            <g id="BG" mask="url(#mask-2)">
                <mask id="mask-5" fill="white">
                    <use xlink:href="#path-4"></use>
                </mask>
                <use id="Rectangle-Copy-2" fill="url(#radialGradient-3)" xlink:href="#path-4"></use>
            </g>
            <g id="Feature-background" mask="url(#mask-2)" opacity="0.225027902">
                <g transform="translate(406.500000, 466.000000) scale(1, -1) translate(-406.500000, -466.000000) translate(-574.452367, -521.474008)" id="BG">
                    <g transform="translate(980.952367, 987.474008) rotate(-122.000000) translate(-980.952367, -987.474008) translate(256.452367, 283.474008)">
                        <path d="M462.464976,239.764996 C437.260195,336.292942 442.02672,396.811355 476.761917,421.320232 C528.86603,458.083549 652.758794,472.788563 704.545783,552.537812 C756.331015,632.285497 914.231611,570.634847 941.236358,433.762335 C968.241105,296.889823 1016.863,85.9245583 760.474712,85.9245583 C589.547429,85.9245583 490.2129,137.203662 462.465855,239.764996 L462.464976,239.764996 Z" id="Path" fill="#FFFA72" fill-rule="nonzero"></path>
                        <path d="M44.5558421,431.488717 C-26.0857995,702.228456 -12.7266211,871.969341 84.6259911,940.711373 C230.658602,1043.82442 577.893834,1085.06876 723.037639,1308.74793 C868.17652,1532.42271 1310.72577,1359.50615 1386.41219,975.608745 C1462.09861,591.71134 1598.37158,0 879.790093,0 C400.730841,0 122.325169,143.826648 44.5583041,431.488717 L44.5558421,431.488717 Z" id="Path" fill="#C7E1F3" fill-rule="nonzero"></path>
                        <path d="M81.9948373,415.778523 C15.2046034,672.481329 27.8354346,833.421728 119.880347,898.59972 C257.951208,996.366708 586.255051,1035.47267 723.485564,1247.55484 C860.711421,1459.63284 1279.13273,1295.68142 1350.6927,931.687782 C1422.25266,567.694149 1551.09599,6.66102495 871.691817,6.66102495 C418.751048,6.66102495 155.524153,143.030752 81.9971652,415.778523 L81.9948373,415.778523 Z" id="Path" fill="#B8CFE6" fill-rule="nonzero"></path>
                        <path d="M112.65739,399.63783 C49.6698122,640.573123 61.5815158,791.628045 148.385915,852.802595 C278.595808,944.564419 588.207898,981.268368 717.625287,1180.32376 C847.038285,1379.37526 1241.63707,1225.49425 1309.12282,883.858281 C1376.60857,542.222309 1498.11629,15.6496468 857.39352,15.6496468 C430.240619,15.6496468 182.000365,143.643106 112.659586,399.63783 L112.65739,399.63783 Z" id="Path" fill="#A9BEDA" fill-rule="nonzero"></path>
                        <path d="M146.833473,381.211089 C87.5510466,609.070884 98.7620617,751.928092 180.46032,809.782714 C303.010807,896.564647 594.410422,931.276682 716.215023,1119.52939 C838.015492,1307.77841 1209.40258,1162.24849 1272.91858,839.153016 C1336.43458,516.057544 1450.79479,18.0618496 847.761595,18.0618496 C445.735336,18.0618496 212.09745,139.109135 146.835539,381.211089 L146.833473,381.211089 Z" id="Path" fill="#9AADCE" fill-rule="nonzero"></path>
                        <path d="M182.152791,369.667268 C126.721772,582.720982 137.20444,716.295486 213.594999,770.390778 C328.183736,851.533716 600.651961,883.990201 714.54327,1060.01046 C828.430715,1236.02726 1175.68986,1099.95371 1235.07941,797.85263 C1294.46896,495.751547 1401.39951,30.1150669 837.543642,30.1150669 C461.635865,30.1150669 243.176756,143.296833 182.154723,369.667268 L182.152791,369.667268 Z" id="Path" fill="#8B9BC1" fill-rule="nonzero"></path>
                        <path d="M218.660342,347.170678 C166.934474,545.6106 176.716454,670.022954 248.000872,720.407739 C354.930203,795.984916 609.185952,826.215144 715.464473,990.161807 C821.739389,1154.10525 1145.78684,1027.36527 1201.20664,745.985926 C1256.62644,464.606578 1356.40948,30.9090618 830.243185,30.9090618 C479.462049,30.9090618 275.605308,136.327457 218.662144,347.170678 L218.660342,347.170678 Z" id="Path" fill="#7D8AB5" fill-rule="nonzero"></path>
                        <path d="M254.93316,329.939688 C207.0587,513.958104 216.112333,629.328862 282.089051,676.051962 C381.056632,746.136611 616.380992,774.169875 714.746221,926.20181 C813.108112,1078.23076 1113.02762,960.701536 1164.32097,699.771269 C1215.61432,438.841001 1307.96771,36.6622001 820.978732,36.6622001 C496.316079,36.6622001 307.638115,134.419375 254.934829,329.939688 L254.93316,329.939688 Z" id="Path" fill="#6E79A9" fill-rule="nonzero"></path>
                        <path d="M286.876171,320.023001 C242.755615,489.619911 251.099339,595.949073 311.902731,639.010488 C403.110124,703.602611 619.982371,729.43891 710.634643,869.556116 C801.283841,1009.67057 1077.68624,901.352102 1124.9576,660.870916 C1172.22897,420.389729 1257.3408,49.7296425 808.537315,49.7296425 C509.331916,49.7296425 335.448456,139.825597 286.877709,320.023001 L286.876171,320.023001 Z" id="Path" fill="#5F679C" fill-rule="nonzero"></path>
                        <path d="M322.324326,303.745953 C281.908922,458.921357 289.551957,556.208925 345.249208,595.608655 C428.797196,654.70825 627.456966,678.347585 710.496452,806.550063 C793.53312,934.750026 1046.72382,835.642308 1090.02544,615.610202 C1133.32705,395.578096 1211.29137,56.4367241 800.177462,56.4367241 C526.098704,56.4367241 366.817612,138.871458 322.325734,303.745953 L322.324326,303.745953 Z" id="Path" fill="#505690" fill-rule="nonzero"></path>
                        <path d="M358.475807,288.211059 C322.009314,428.964957 328.905564,517.210929 379.160742,552.948974 C454.545417,606.556041 633.794522,627.998412 708.720379,744.286161 C783.643693,860.57163 1012.09562,770.674667 1051.16632,571.091641 C1090.23701,371.508615 1160.58359,63.8859587 789.638829,63.8859587 C542.339782,63.8859587 398.62174,138.659472 358.477078,288.211059 L358.475807,288.211059 Z" id="Path" fill="#414584" fill-rule="nonzero"></path>
                        <path d="M392.023575,270.450149 C359.213482,396.782541 365.418262,475.986917 410.634486,508.063277 C478.460537,556.177817 639.736804,575.423224 707.150041,679.796245 C774.560991,784.167219 980.106641,703.48101 1015.25982,524.347065 C1050.413,345.21312 1113.70611,69.1091777 779.955011,69.1091777 C557.45199,69.1091777 428.14418,136.22147 392.024718,270.450149 L392.023575,270.450149 Z" id="Path" fill="#323377" fill-rule="nonzero"></path>
                    </g>
                </g>
            </g>
        </g>
    </g>
</svg>