<?xml version="1.0" encoding="UTF-8"?>
<svg width="181px" height="124px" viewBox="0 0 181 124" version="1.1" xmlns="http://www.w3.org/2000/svg" xmlns:xlink="http://www.w3.org/1999/xlink">
    <title>4CFCEF8F-6B48-4506-B5C9-C514832C674C</title>
    <defs>
        <filter x="-86.2%" y="-617.7%" width="272.4%" height="1335.4%" filterUnits="objectBoundingBox" id="filter-1">
            <feGaussianBlur stdDeviation="18.9597345" in="SourceGraphic"></feGaussianBlur>
        </filter>
    </defs>
    <g id="Empty-states" stroke="none" stroke-width="1" fill="none" fill-rule="evenodd">
        <g id="Overview.es.1" transform="translate(28.000000, -1377.000000)">
            <g id="Component-/-Recent-transactions" transform="translate(0.000000, 1305.000000)">
                <g id="Group-5" transform="translate(14.724638, 76.732102)">
                    <ellipse id="Oval" fill="#CDE0E7" cx="48.9855072" cy="40.9237875" rx="39.9881692" ry="40.9237875"></ellipse>
                    <g id="Group-4" transform="translate(0.000000, 19.438799)">
                        <ellipse id="shadow" fill="#101010" opacity="0.558141799" filter="url(#filter-1)" cx="47.985803" cy="37.8545035" rx="32.9902396" ry="4.6039261"></ellipse>
                        <rect id="Rectangle" fill="#FFFFFF" x="0" y="0" width="97.9710145" height="41.9468822" rx="13.7888978"></rect>
                        <g id="Group-3-Copy-2" opacity="0.6" transform="translate(7.997634, 13.300231)" fill="#8B714F">
                            <rect id="Rectangle" x="0" y="0" width="9.24349639" height="9.55954099" rx="4.6217482"></rect>
                            <rect id="Rectangle-Copy" x="14.0661902" y="0" width="24.1134689" height="4.98758661" rx="2.4937933"></rect>
                            <rect id="Rectangle-Copy-5" x="67.1158216" y="0" width="12.8605167" height="4.98758661" rx="2.4937933"></rect>
                            <rect id="Rectangle-Copy-4" x="14.0661902" y="11.3819284" width="9.24349639" height="4.98758661" rx="2.4937933"></rect>
                            <rect id="Rectangle-Copy-6" x="70.732842" y="11.3819284" width="9.24349639" height="4.98758661" rx="2.4937933"></rect>
                        </g>
                        <path d="M0.499597747,31.7343401 L0.499597747,33.7621247 C0.499597747,37.9387617 3.76001617,41.3359963 7.81809143,41.4335896 L7.99763384,41.4357464 L10.049694,41.4357464 L10.049694,42.458018 L7.99763384,42.458018 C3.3656564,42.458018 -0.4006347,38.6651686 -0.497679202,33.9487714 L-0.499597747,33.7621247 L-0.499597747,31.7343401 L0.499597747,31.7343401 Z M98.4706122,31.7204523 L98.4706122,33.7621247 C98.4706122,38.502329 94.7644767,42.3567395 90.1557659,42.4560546 L89.9733807,42.458018 L87.9418206,42.458018 L87.9418206,41.4357464 L89.9733807,41.4357464 C94.0543838,41.4357464 97.3739472,38.0990427 97.4693093,33.9458744 L97.4714167,33.7621247 L97.4714167,31.7204523 L98.4706122,31.7204523 Z M89.9733807,-0.511135802 C94.6053581,-0.511135802 98.3716492,3.2817136 98.4686937,7.99811079 L98.4706122,8.18475751 L98.4706122,11.3345302 L97.4714167,11.3345302 L97.4714167,8.18475751 C97.4714167,4.00812055 94.2109983,0.610885912 90.1529231,0.513292603 L89.9733807,0.511135802 L88.0082215,0.511135802 L88.0082215,-0.511135802 L89.9733807,-0.511135802 Z M9.99819343,-0.511135802 L9.99819343,0.511135802 L7.99763384,0.511135802 C3.91663069,0.511135802 0.597067294,3.84783947 0.501705238,8.00100779 L0.499597747,8.18475751 L0.499597747,11.278178 L-0.499597747,11.278178 L-0.499597747,8.18475751 C-0.499597747,3.4445532 3.2065378,-0.409857304 7.81524864,-0.509172368 L7.99763384,-0.511135802 L9.99819343,-0.511135802 Z" id="Shape-Copy" fill="#9BC1D0" fill-rule="nonzero"></path>
                    </g>
                </g>
            </g>
        </g>
    </g>
</svg>