<?xml version="1.0" encoding="UTF-8"?>
<svg width="15px" height="15px" viewBox="0 0 15 15" version="1.1" xmlns="http://www.w3.org/2000/svg" xmlns:xlink="http://www.w3.org/1999/xlink">
    <title>C2080549-B32A-4CDC-A6DF-9425912D6693@1x</title>
    <defs>
        <path d="M2,1.33333333 C1.63181017,1.33333333 1.33333333,1.63181017 1.33333333,2 L1.33333333,4.66666667 C1.33333333,5.0348565 1.63181017,5.33333333 2,5.33333333 L12.6666667,5.33333333 C13.0348565,5.33333333 13.3333333,5.0348565 13.3333333,4.66666667 L13.3333333,2 C13.3333333,1.63181017 13.0348565,1.33333333 12.6666667,1.33333333 L2,1.33333333 Z M12.6666667,8 C13.7712362,8 14.6666667,8.8954305 14.6666667,10 L14.6666667,12.6666667 C14.6666667,13.7712362 13.7712362,14.6666667 12.6666667,14.6666667 L2,14.6666667 C0.8954305,14.6666667 3.55271368e-15,13.7712362 3.55271368e-15,12.6666667 L3.55271368e-15,10 C3.55271368e-15,8.8954305 0.8954305,8 2,8 L12.6666667,8 Z M12.6666667,9.33333333 L2,9.33333333 C1.63181017,9.33333333 1.33333333,9.63181017 1.33333333,10 L1.33333333,12.6666667 C1.33333333,13.0348565 1.63181017,13.3333333 2,13.3333333 L12.6666667,13.3333333 C13.0348565,13.3333333 13.3333333,13.0348565 13.3333333,12.6666667 L13.3333333,10 C13.3333333,9.63181017 13.0348565,9.33333333 12.6666667,9.33333333 Z M12.6666667,0 C13.7712362,0 14.6666667,0.8954305 14.6666667,2 L14.6666667,4.66666667 C14.6666667,5.77123617 13.7712362,6.66666667 12.6666667,6.66666667 L2,6.66666667 C0.8954305,6.66666667 3.55271368e-15,5.77123617 3.55271368e-15,4.66666667 L3.55271368e-15,2 C3.55271368e-15,0.8954305 0.8954305,0 2,0 L12.6666667,0 Z" id="path-1"></path>
    </defs>
    <g id="Stanbic/Kwara-Demo" stroke="none" stroke-width="1" fill="none" fill-rule="evenodd">
        <g id="Overview" transform="translate(-41.000000, -364.000000)">
            <g id="Get-started" transform="translate(15.000000, 341.000000)">
                <g id="Link-accounts" transform="translate(26.166667, 23.066667)">
                    <mask id="mask-2" fill="white">
                        <use xlink:href="#path-1"></use>
                    </mask>
                    <use id="Combined-Shape" fill="#056489" xlink:href="#path-1"></use>
                </g>
            </g>
        </g>
    </g>
</svg>