<?xml version="1.0" encoding="UTF-8"?>
<svg width="137px" height="40px" viewBox="0 0 137 40" version="1.1" xmlns="http://www.w3.org/2000/svg" xmlns:xlink="http://www.w3.org/1999/xlink">
    <title>FAED17C5-C8C5-48E3-ACC6-ECBD8B7775D1@1x</title>
    <defs>
        <path d="M19,7.99950938 C19.2652377,7.99957837 19.5196317,7.89424368 19.7071831,7.70669235 C19.8947344,7.51914101 20,7.26474701 20,6.99950938 L20,3.99950938 C20,3.56918025 19.7247379,3.18710585 19.3164101,3.05126938 L10.3164101,0.05126938 C10.1110084,-0.0170897933 9.88899181,-0.0170897933 9.68359009,0.05126938 L0.683590085,3.05126938 C0.275262223,3.18710585 0,3.56918025 0,3.99950938 L0,6.99950938 C0,7.26474701 0.105265782,7.51914101 0.292817118,7.70669235 C0.480368453,7.89424368 0.734762452,7.99957837 1,7.99950938 L2,7.99950938 L2,15.1837794 C0.80481441,15.6047706 0.00389834182,16.7323523 0,17.9995094 L0,19.9995094 C0,20.264747 0.105265782,20.519141 0.292817118,20.7066923 C0.480368453,20.8942437 0.734762452,20.9995094 1,20.9995094 L19,20.9995094 C19.2652377,20.9995094 19.5196317,20.8942437 19.7071831,20.7066923 C19.8947344,20.519141 20,20.264747 20,19.9995094 L20,17.9995094 C19.9961018,16.7323523 19.1951858,15.6047706 18,15.1837794 L18,7.99950938 L19,7.99950938 Z M18.0000001,18.9995094 L2.00000009,18.9995094 L2.00000009,17.9995094 C2.00055131,17.4474531 2.44794382,17.0000606 3.00000009,16.9995094 L17.0000001,16.9995094 C17.5520563,17.0000606 17.9994489,17.4474531 18.0000001,17.9995094 L18.0000001,18.9995094 Z M4.00000009,14.9995094 L4.00000009,7.99950938 L6.00000009,7.99950938 L6.00000009,14.9995094 L4.00000009,14.9995094 Z M8.00000009,14.9995094 L8.00000009,7.99950938 L12.0000001,7.99950938 L12.0000001,14.9995094 L8.00000009,14.9995094 Z M14.0000001,14.9995094 L14.0000001,7.99950938 L16.0000001,7.99950938 L16.0000001,14.9995094 L14.0000001,14.9995094 Z M2.00000009,5.99950938 L2.00000009,4.72020938 L10.0000001,2.05320938 L18.0000001,4.72020938 L18.0000001,5.99950938 L2.00000009,5.99950938 Z" id="path-1"></path>
    </defs>
    <g id="Stanbic/Kwara-Demo" stroke="none" stroke-width="1" fill="none" fill-rule="evenodd">
        <g id="Connect.v" transform="translate(-112.000000, -109.000000)">
            <g id="Dynamic:Mono" transform="translate(0.000000, 24.000000)">
                <g id="Mono-graphic" transform="translate(112.000000, 85.000000)">
                    <g id="Group" transform="translate(97.000000, 0.000000)">
                        <g id="Shape/Circle">
                            <rect id="Shadow" x="0" y="0" width="40" height="40" rx="20"></rect>
                            <rect id="Fill" fill="#D6EAD4" x="0" y="0" width="40" height="40" rx="20"></rect>
                            <g id="Outline-Tint" stroke="#FFFFFF" stroke-opacity="0">
                                <rect id="Outline" x="0.5" y="0.5" width="39" height="39" rx="19.5"></rect>
                            </g>
                        </g>
                        <g id="arrow-down-left" transform="translate(10.000000, 10.000000)">
                            <mask id="mask-2" fill="white">
                                <use xlink:href="#path-1"></use>
                            </mask>
                            <use id="Shape" fill="#33982A" xlink:href="#path-1"></use>
                        </g>
                    </g>
                    <g id="mono" transform="translate(0.000000, 1.000000)" fill="#182CD1" fill-rule="nonzero">
                        <path d="M28.4208269,32.2730502 C28.4073069,32.1886989 28.4420818,32.1038253 28.5108515,32.0534888 C28.5796213,32.0031522 28.6706859,31.9959053 28.7464756,32.0347513 C30.0387356,32.6950678 31.3961253,33.2180196 32.7965449,33.5950542 C32.8733746,33.615685 32.9553393,33.5945319 33.012734,33.5392988 C33.6213267,32.9523653 34.1915695,32.3266511 34.7199524,31.6659429 C34.7705222,31.6024836 34.7837822,31.5168266 34.7548573,31.4408973 C34.2301143,30.0735186 33.5638019,28.7653555 32.76684,27.5378876 C32.7203652,27.4663979 32.7177652,27.3747345 32.760145,27.3006986 C32.8025899,27.2266627 32.8827345,27.1827896 32.9676892,27.1871638 C33.3340278,27.2063583 33.6991964,27.2160209 34.063195,27.2160209 C35.1798256,27.215825 36.2945713,27.1250103 37.396642,26.9443601 C37.4746417,26.9315638 37.5404864,26.8789421 37.5705163,26.8054286 C37.8779651,26.0492702 38.1376391,25.2744397 38.3481083,24.4854418 C38.3688432,24.4069663 38.3466783,24.3232679 38.2898685,24.2655539 C37.2377826,23.2006515 36.0746121,22.2525483 34.820572,21.4376966 C34.7491373,21.3913426 34.7096824,21.3085582 34.7185224,21.2236193 C34.7272974,21.1386151 34.7828722,21.0658197 34.8623018,21.0352652 C36.2794263,20.488614 37.6327211,19.78795 38.8981362,18.9457428 C38.9637859,18.9018697 39.0022008,18.8269851 38.9999024,18.7477915 C38.9737959,17.9642778 38.9013211,17.1829838 38.7826316,16.4081532 C38.7703467,16.3281109 38.7166569,16.2605385 38.6416472,16.2307674 C37.2189977,15.6673374 35.7388234,15.2631433 34.2280343,15.0254972 C34.1439896,15.0122439 34.0745049,14.9527671 34.04818,14.8714843 C34.0217901,14.7902668 34.04311,14.7010843 34.1032348,14.6406282 C35.2034855,13.5363575 36.1770517,12.311697 37.0057985,10.989693 C37.0477234,10.9225123 37.0520783,10.8383568 37.0173035,10.7671936 C36.6644848,10.0476615 36.2679864,9.35052288 35.8299531,8.67989099 L35.8202031,8.69862846 C34.2220543,8.75203353 32.6352805,8.99033245 31.0914715,9.40875922 L31.0280318,9.42606038 C30.9461321,9.44871509 30.8584474,9.42312244 30.8014426,9.35979369 C30.7444379,9.29653023 30.7277979,9.20636836 30.7584778,9.12678306 C30.7662128,9.10615225 30.7740777,9.08552144 30.7818127,9.06508649 C31.3429555,7.5831284 31.734514,6.04194161 31.9489482,4.47115353 C31.989963,4.4541527 32.0314329,4.43815729 32.0725777,4.42143719 C31.3988553,3.85032937 30.6874331,3.32556905 29.943251,2.85074051 L29.938246,2.85376984 C29.941756,2.94162053 29.8933962,3.02328851 29.8148765,3.06214102 C28.4397418,3.74835702 27.1444918,4.58529544 25.9526565,5.55767252 L25.9015667,5.59946297 C25.8359169,5.65361885 25.7454373,5.66598427 25.6677626,5.63142767 C25.5900229,5.59687106 25.5383481,5.5212944 25.5341231,5.4360552 C25.5330181,5.41400766 25.5318481,5.39210374 25.5305481,5.3700562 C25.4459835,3.83506518 25.1931994,2.314124 24.7768111,0.834777412 C24.7546461,0.756360748 24.7766161,0.672035577 24.8342058,0.614589217 C24.8506508,0.598017323 24.8672907,0.581446082 24.8835406,0.564586271 C24.011894,0.314251631 23.1238675,0.125593973 22.225961,0 L22.217381,0.0157069668 C22.2778958,0.097925184 22.2745158,0.211072119 22.209191,0.289497923 C21.2339998,1.47538365 20.3920581,2.76567759 19.6985108,4.13698664 L19.6688059,4.19577792 C19.6307811,4.27202051 19.5531714,4.32022218 19.4682817,4.32040498 C19.383327,4.32058779 19.3055223,4.27271909 19.2671075,4.19663971 L19.2372726,4.13784843 C18.5368353,2.76584081 17.6874836,1.47584066 16.7046874,0.291371671 C16.6531426,0.229659434 16.6383877,0.144927523 16.6660776,0.0693123398 C16.6730976,0.050435214 16.6804425,0.0317021121 16.6868775,0.0128249863 C15.798721,0.141699062 14.9205094,0.332321217 14.0586127,0.583319177 L14.0573127,0.595135538 C14.1388224,0.648039855 14.1764573,0.748186769 14.1500024,0.841978609 C13.737059,2.32697256 13.4888899,3.85330647 13.4101102,5.39310917 L13.4067303,5.45910817 C13.4027653,5.54436696 13.3513505,5.62012642 13.2738058,5.65495724 C13.1961961,5.68978152 13.1057164,5.677736 13.0398717,5.62381516 L12.9887819,5.58231198 C11.7968815,4.61748212 10.5026065,3.7876339 9.12955188,3.10781607 C9.05746716,3.07244337 9.00982235,3.00092758 9.00475237,2.92048701 C9.00390737,2.90881363 9.00319237,2.89714025 9.00241237,2.88547339 C8.25673527,3.36500915 7.54433804,3.89483577 6.87009566,4.47129716 C6.90955051,4.4870053 6.94913536,4.50213891 6.9884602,4.51827795 C7.20874435,6.08810631 7.6060878,7.62765439 8.1727556,9.10732742 L8.19648051,9.1689587 C8.22748539,9.24847872 8.21123545,9.33877116 8.15442567,9.40229577 C8.09768089,9.46582039 8.01006123,9.49173947 7.92803155,9.46928062 L7.8644618,9.4523059 C6.34327921,9.04615315 4.78114028,8.81464413 3.2080034,8.76215308 C3.19437295,8.73682158 3.181464,8.71116364 3.16783356,8.68563628 C2.69805438,9.40582129 2.27606302,10.1562996 1.90461547,10.9321748 C1.92025441,10.9321748 1.93589335,10.9306079 1.95153228,10.9301509 C2.78831953,12.274679 3.7745737,13.5192522 4.89128886,14.63991 L4.93791318,14.6865905 C4.99836944,14.7465896 5.01999486,14.8357068 4.99381296,14.9169243 C4.96762456,14.9981418 4.89810083,15.0576186 4.81410166,15.0706108 L4.74911491,15.0809915 C3.24231677,15.3238605 1.7666925,15.7324942 0.348873815,16.299515 C0.273855007,16.3295472 0.220375815,16.3973808 0.208420411,16.477619 C0.0923893621,17.2559751 0.0228753174,18.0405987 7.73709889e-05,18.8273115 C-0.00197137553,18.9065704 0.0367818833,18.9813245 0.102686622,19.0248711 C1.36874455,19.8597008 2.72174679,20.5532485 4.13766229,21.0931751 C4.21716348,21.1235338 4.27295926,21.1961333 4.28204623,21.2810722 C4.29113319,21.3660111 4.25196434,21.4488607 4.18069862,21.4954759 C2.93256697,22.3132656 1.77547397,23.2633927 0.729342036,24.3294049 C0.672603757,24.3872495 0.650750842,24.4710132 0.671960259,24.5494234 C0.885432429,25.3404452 1.14850591,26.1171038 1.4595882,26.8747638 C1.48988458,26.948212 1.55599582,27.0006378 1.63418402,27.0131077 C2.70783684,27.1844871 3.79326113,27.2706011 4.8803819,27.2707317 C5.27060788,27.2707317 5.66227036,27.2597634 6.05536933,27.2377615 C6.140311,27.2329956 6.22073519,27.2765422 6.26344652,27.3504476 C6.30615786,27.4243529 6.30392187,27.5160816 6.25765504,27.5877672 C5.46667962,28.8158226 4.80627569,30.1238552 4.2872982,31.4904505 C4.25849032,31.5663797 4.27203626,31.6520367 4.32287907,31.7152349 C4.8547395,32.3762695 5.42865477,33.002049 6.04102389,33.5885908 C6.09865266,33.643628 6.18072784,33.66452 6.25751205,33.643628 C7.65399262,33.2611093 9.00696236,32.7335221 10.2944774,32.0692883 C10.3701371,32.0302465 10.4612017,32.0371669 10.5301664,32.0872423 C10.5990662,32.1372525 10.634231,32.2219302 10.6210361,32.3063468 C10.3988019,33.7299379 10.3237272,35.1727236 10.396917,36.6117879 C10.4010119,36.6926137 10.4474868,36.7652785 10.5190515,36.8025576 C11.2850085,37.2024428 12.0767704,37.5504897 12.8889423,37.8444135 C12.964277,37.8715078 13.0481916,37.8569487 13.1101364,37.8060898 C14.2162371,36.8949392 15.2258132,35.8716902 16.1229397,34.7525994 C16.1762395,34.6860715 16.2622342,34.6551906 16.3454988,34.6727529 C16.4286985,34.6903805 16.4950632,34.7533828 16.5171632,34.835906 C16.8875317,36.2173216 17.3981047,37.5568879 18.0407572,38.8335172 C18.0769621,38.9053333 18.1482018,38.9526667 18.2281515,38.9578896 C18.6489599,38.9852451 19.0732132,38.9992818 19.5008466,39 C19.9503848,39 20.3959581,38.9847228 20.8376314,38.9542988 C20.9177761,38.9487494 20.9890808,38.9010896 21.0250256,38.8289471 C21.6631932,37.5494451 22.1688262,36.2075938 22.5339948,34.8243502 C22.5558347,34.7417617 22.6219394,34.6784982 22.7051391,34.6605442 C22.7883388,34.6426554 22.8744634,34.6731446 22.9280882,34.7394766 C23.8302197,35.8561518 24.8446058,36.876267 25.9551915,37.7837615 C26.0173312,37.8343592 26.1012459,37.8485919 26.1764506,37.8212365 C26.9864125,37.5248971 27.7758344,37.1746956 28.5394514,36.7729171 C28.6108861,36.7352463 28.657101,36.6624509 28.661001,36.5815598 C28.7291207,35.1409287 28.648586,33.6970331 28.4208269,32.2730502 Z M35.4625745,24.6001517 C35.6189639,24.730857 35.5368692,24.9876322 35.33342,25.0017343 C34.9111817,25.0305913 34.4866683,25.045281 34.05988,25.0458686 C33.7342312,25.0458686 33.4065675,25.0373159 33.0790338,25.0203412 C32.2631569,24.977578 31.4509201,24.8812791 30.6475882,24.7321627 C30.6002684,24.7233489 30.5570436,24.699519 30.5243487,24.6641333 C29.9006111,23.9944154 29.2329337,23.3674608 28.5258665,22.7873825 C28.4539118,22.7288197 28.4253769,22.6318027 28.4539768,22.5433383 C28.4825766,22.4549392 28.5625263,22.3933732 28.654956,22.3884766 C29.5661874,22.3339617 30.4728039,22.2184683 31.3687604,22.0426494 C31.4159502,22.0333133 31.4648951,22.0394503 31.5083799,22.0600811 C32.9270644,22.737307 34.2555942,23.590613 35.4628345,24.6000211 L35.4625745,24.6001517 Z M33.8930256,17.1682941 C34.6359727,17.2851585 35.3711849,17.4467448 36.0948271,17.6523347 C36.2909313,17.7080901 36.3192062,17.9764212 36.1391569,18.0722631 C34.7514123,18.8098145 33.277153,19.3699802 31.7508289,19.7396373 C31.7040291,19.7508014 31.6548893,19.7466231 31.6106245,19.7276897 C30.7692028,19.3701761 29.9048361,19.0697236 29.0233745,18.8283561 C28.9340649,18.8041998 28.8687401,18.7273566 28.8590552,18.6350402 C28.8493052,18.5426586 28.89721,18.4538025 28.9794997,18.411431 C29.7903716,17.9899357 30.5722535,17.5143825 31.3200106,16.9880357 C31.3592705,16.9602885 31.4063953,16.9459253 31.4544301,16.9469699 C32.2712169,16.9673396 33.0857938,17.0413102 33.8930256,17.1682941 Z M34.046815,11.4252903 C33.0796838,12.6618985 31.9614281,13.7713268 30.718438,14.7273951 C30.6802181,14.7565133 30.6337433,14.7727698 30.5857085,14.7736185 C29.6621271,14.7915726 28.7407556,14.8722678 27.8280292,15.0151165 C27.7367045,15.0298062 27.6457699,14.9864554 27.5993601,14.9060866 C27.5528853,14.8257832 27.5604902,14.7249795 27.618405,14.6525758 C28.1786378,13.9464928 28.6919408,13.2041754 29.155064,12.4303894 C29.1796339,12.3892584 29.2165538,12.3569411 29.2605586,12.3382037 C30.7255879,11.7179083 32.2635469,11.2883174 33.8370608,11.0598769 C34.0379101,11.0306281 34.1726545,11.2644875 34.046815,11.4252903 Z M25.4080236,9.09335592 C25.4136786,9.04563085 25.4344135,9.00097429 25.4671734,8.96591497 C26.5399942,7.81959927 27.7514595,6.81267211 29.0732944,5.96865001 C29.2454787,5.85869954 29.4641378,6.01749802 29.414153,6.2162132 C29.0303945,7.74158086 28.4580067,9.21263595 27.7103796,10.5951614 C27.6874997,10.6372717 27.6518149,10.6710253 27.608525,10.691395 C26.7906982,11.0787449 25.9993263,11.5200876 25.2396093,12.012485 C25.1620646,12.0630827 25.0615749,12.0605365 24.9866302,12.0060868 C24.9117505,11.9517024 24.8778207,11.856644 24.9013506,11.7668086 C25.1287197,10.8878447 25.297979,9.9947134 25.4080236,9.09335592 Z M11.6340571,7.27157706 C12.2891896,7.80164524 12.9081822,8.37532539 13.4867449,8.98870026 C13.5195048,9.02369429 13.5403697,9.068155 13.5462847,9.11581478 C13.6595793,10.0168458 13.8320886,10.9093242 14.0627727,11.7874394 C14.0866276,11.8771442 14.0530877,11.9723985 13.978338,12.0271093 C13.9035883,12.0818201 13.8030987,12.0846928 13.725359,12.0344215 C12.968437,11.5480306 12.18051,11.1121721 11.3665832,10.7297186 C11.3233584,10.7094796 11.2876085,10.6759218 11.2645986,10.6338768 C10.5098865,9.25520332 9.93112876,7.78649857 9.54204028,6.2624693 C9.49121047,6.06375412 9.70941463,5.90409385 9.88205396,6.01360689 C10.4895416,6.39888727 11.0744743,6.8189397 11.6340571,7.27157706 Z M4.99056297,11.4812416 C4.86388496,11.3203735 4.99859694,11.0855348 5.20059665,11.1150447 C6.74568615,11.3412655 8.25667027,11.760084 9.69855967,12.3618377 C9.7426945,12.380314 9.77974435,12.4124354 9.80444426,12.4536317 C10.2727024,13.2304862 10.7916604,13.9753498 11.3578732,14.6833914 C11.415983,14.7556645 11.423848,14.8563376 11.3776981,14.936837 C11.3316133,15.0173363 11.2409387,15.0610136 11.149549,15.0468462 C10.2612625,14.9115708 9.36504597,14.835054 8.46674946,14.8178834 C8.41903964,14.8170999 8.37282482,14.8011045 8.33473497,14.7721822 C7.08686982,13.8206188 5.96328419,12.7149118 4.99056297,11.4812416 Z M2.91992452,17.7180138 C4.44841308,17.2786298 6.02656144,17.0372623 7.61596776,16.9998527 C7.66374258,16.9987428 7.7105424,17.0129754 7.74967224,17.0404614 C8.48761438,17.5553177 9.25844638,18.0209472 10.0572283,18.4342163 C10.139648,18.4763919 10.1876828,18.5651827 10.1781928,18.6575644 C10.1686378,18.749946 10.1034431,18.8269851 10.0141334,18.851272 C9.1233769,19.0967525 8.2501053,19.4025586 7.4003636,19.7664051 C7.35622877,19.7853385 7.30721896,19.7897127 7.26048415,19.7788097 C5.73646107,19.4188804 4.2636318,18.8676591 2.87673869,18.1380728 C2.69741089,18.0432755 2.72409328,17.7745527 2.91992452,17.7180138 Z M5.9352888,25.0719182 C5.1897547,25.1137021 4.4424071,25.1108295 3.697224,25.0633003 C3.49393079,25.0501775 3.41028911,24.7936634 3.56595051,24.6621094 C4.76929083,23.6476089 6.09542218,22.7897981 7.51281317,22.1092425 C7.556233,22.0884158 7.60511281,22.0821483 7.65230262,22.0913538 C8.54305916,22.2618844 9.44408566,22.3729382 10.3494671,22.4237971 C10.4417668,22.4286936 10.5215865,22.4900638 10.5503164,22.578267 C10.5791112,22.6664702 10.5509664,22.763422 10.4794016,22.8222459 C9.77467437,23.4048052 9.10953196,24.0340449 8.48839437,24.7057866 C8.4557645,24.7411724 8.41273467,24.7651329 8.36560985,24.7742078 C7.56279797,24.926458 6.75095113,25.0258906 5.9352888,25.0719182 Z M9.30804119,30.1395241 C8.63925879,30.4845679 7.95039146,30.7889376 7.24527421,31.0509359 C7.05417495,31.121838 6.87386565,30.9212751 6.9632403,30.7378176 C7.65197762,29.3201676 8.51549927,27.9951604 9.53339531,26.793938 C9.56459519,26.7571812 9.60671503,26.7315233 9.65351484,26.720555 C10.5425164,26.5117007 11.416633,26.2433043 12.2700147,25.9171938 C12.3563343,25.8839626 12.454094,25.907466 12.5161687,25.9762789 C12.5781785,26.0451571 12.5916334,26.1452426 12.5500336,26.2281576 C12.1419002,27.0484935 11.7888215,27.8952707 11.4932677,28.7629399 C11.4777978,28.808641 11.4481579,28.8481399 11.408638,28.8757565 C10.7366056,29.3424959 10.0348684,29.764644 9.30804119,30.1395241 Z M14.4404862,33.3924675 C13.9722281,33.9767242 13.469715,34.5324503 12.9355471,35.0566427 C12.7899477,35.199622 12.5439236,35.0905268 12.5510736,34.8860467 C12.6065184,33.3094873 12.8599524,31.7463117 13.3053956,30.2336032 C13.3193056,30.1876409 13.3473205,30.1472933 13.3854753,30.1183057 C14.1080775,29.5672803 14.7934999,28.9685298 15.4369974,28.3261673 C15.5023871,28.2604882 15.6012517,28.2420119 15.6857514,28.2795522 C15.7703161,28.3170924 15.8231609,28.4030106 15.8188059,28.4957839 C15.777791,29.4118964 15.797941,30.3297715 15.8790606,31.2432072 C15.8834156,31.2912587 15.8723657,31.3395061 15.8474708,31.3807677 C15.4225674,32.0813665 14.9525542,32.7533694 14.4404862,33.3924675 Z M15.6609865,8.16601407 C15.6295266,8.12971429 15.6104167,8.08427428 15.6064517,8.03635335 C15.4770372,6.4683008 15.5434019,4.8901483 15.8041809,3.33866569 C15.8381758,3.13692771 16.1020098,3.07928549 16.2154993,3.25018825 C16.6177828,3.85424661 16.9850313,4.48111638 17.3154251,5.12767682 C17.6995086,5.8794544 18.0328273,6.65630885 18.3131062,7.45301067 C18.3289011,7.49838539 18.3299411,7.54754679 18.3160962,7.5935091 C18.0550572,8.46287576 17.851608,9.34862955 17.7071135,10.2449599 C17.6926186,10.3367539 17.6234589,10.410137 17.5329792,10.4296579 C17.4425646,10.4491788 17.3494849,10.4107898 17.2987851,10.3330326 C16.8010821,9.57517674 16.2539792,8.85127034 15.6609865,8.16601407 Z M20.4462679,34.2688852 C20.2536086,34.9989286 20.0173996,35.7167633 19.7390056,36.4184067 C19.6635409,36.6084582 19.394702,36.6090458 19.3186523,36.4191248 C18.7315096,34.9560348 18.3296811,33.4247195 18.1225919,31.8610869 C18.1163519,31.813166 18.1255169,31.7645921 18.1487868,31.7222859 C18.5895501,30.919186 18.9762986,30.0873595 19.3064323,29.2324214 C19.3395822,29.1457197 19.4224569,29.0884627 19.5148865,29.0882664 C19.6073161,29.088071 19.6903858,29.1450016 19.7239257,29.2315074 C20.0573094,30.0853356 20.4471779,30.9157257 20.8909962,31.7171282 C20.9143961,31.7593039 20.923756,31.8078777 20.9177111,31.8557333 C20.8130615,32.6696057 20.6556321,33.4756436 20.4462679,34.2688852 Z M21.2516798,10.2393452 C21.1046503,9.3488907 20.8994461,8.46914335 20.6373671,7.60578312 C20.6233922,7.55995139 20.6242372,7.51085528 20.6398371,7.46554584 C21.1524251,5.98397948 21.8482474,4.5729039 22.7108591,3.26546549 C22.8236336,3.09456273 23.0879226,3.15018105 23.1225025,3.35192556 C23.3875065,4.89772164 23.4581612,6.47084048 23.3328417,8.03432944 C23.3290067,8.08218508 23.3100918,8.1276251 23.2788919,8.16399016 C22.6925942,8.84807126 22.1517963,9.57014961 21.6600082,10.3255245 C21.6095684,10.4032165 21.5168137,10.4418013 21.4264641,10.4227374 C21.3361144,10.4036735 21.2666947,10.3308781 21.2516798,10.2393452 Z M23.1598123,31.2121957 C23.236122,30.3039177 23.252307,29.391592 23.2081072,28.4812249 C23.2034272,28.3885168 23.255882,28.3024027 23.3402516,28.2644708 C23.4246213,28.2266041 23.5235509,28.2446887 23.5892007,28.3100414 C24.2393281,28.9539054 24.9315755,29.5533088 25.6613926,30.1043342 C25.6998075,30.1331913 25.7280824,30.1735389 25.7420573,30.2196317 C26.1899056,31.7261379 26.4482146,33.2829806 26.5110043,34.8539254 C26.5191943,35.0584054 26.2738852,35.1689369 26.1273758,35.0268063 C24.9987202,33.9298479 24.012479,32.6940885 23.1921822,31.3487769 C23.1673523,31.3078417 23.1561074,31.259986 23.1600723,31.2121957 L23.1598123,31.2121957 Z M26.7479934,25.8897079 C27.6026101,26.2122275 28.4777667,26.4770331 29.3675482,26.6822313 C29.414413,26.6930037 29.4565979,26.7185311 29.4879277,26.7551573 C30.5102438,27.9525277 31.3787054,29.2742053 32.0729027,30.6891132 C32.1629923,30.8727013 31.983528,31.07346 31.7921038,31.0032761 C30.3170645,30.4617826 28.915605,29.7363093 27.62055,28.8438962 C27.5809652,28.8164755 27.5511303,28.7770419 27.5355303,28.7313408 C27.2368565,27.8651732 26.8807879,27.0200934 26.4696645,26.2016509 C26.4279346,26.1189318 26.4410646,26.0189769 26.5026843,25.9499028 C26.5643691,25.8808941 26.6619337,25.8569336 26.7483184,25.8897079 L26.7479934,25.8897079 Z" id="Shape"></path>
                    </g>
                    <path d="M55.0386105,15.7957474 L85.2380336,15.7957474 M85.2380336,16.0573772 L80.9764038,11.7957474" id="Combined-Shape" stroke="#101010"></path>
                    <path d="M55.0386105,27.7957474 L85.2380336,27.7957474 M85.2380336,28.0573772 L80.9764038,23.7957474" id="Combined-Shape-Copy" stroke="#101010" transform="translate(70.138322, 26.045747) scale(-1, -1) translate(-70.138322, -26.045747) "></path>
                </g>
            </g>
        </g>
    </g>
</svg>