<?xml version="1.0" encoding="UTF-8"?><svg version="1.1" width="16px" height="16px" viewBox="0 0 16.0 16.0" xmlns="http://www.w3.org/2000/svg" xmlns:xlink="http://www.w3.org/1999/xlink"><defs><clipPath id="i0"><path d="M360,0 L360,760 L0,760 L0,0 L360,0 Z"></path></clipPath><clipPath id="i1"><path d="M0.366677926,0.0982285163 C0.593571871,-0.0327428388 0.873116739,-0.0327428388 1.10001068,0.0982285163 L3.30000896,1.35931123 L5.50000574,0.0982285163 C5.72690119,-0.0327428388 6.00644605,-0.0327428388 6.23334,0.0982285163 L8.43333828,1.35931123 L10.6333366,0.0982285163 C10.8602305,-0.0327428388 11.1397754,-0.0327428388 11.3666693,0.0982285163 C11.5944675,0.229719093 11.73438,0.473118525 11.7333357,0.736101752 L11.7333357,7.3347904 L13.933334,7.3347904 C14.3383425,7.3347904 14.6666667,7.66304968 14.6666667,8.06797802 L14.6666667,12.4671038 C14.6666667,13.6818888 13.681694,14.6666667 12.4666685,14.6666667 L2.20000982,14.6666667 C0.984984325,14.6666667 5.74088061e-06,13.6818888 5.74088061e-06,12.4671038 L5.74088061e-06,0.736101752 C-0.0010327246,0.473118525 0.138879696,0.229719093 0.366677926,0.0982285163 Z M5.86667362,1.57926752 L3.66667534,2.84035024 C3.43695472,2.96031163 3.1630632,2.96031163 2.93334258,2.84035024 L1.46667706,2.00451635 L1.46667706,12.4671038 C1.46667706,12.8720321 1.79500132,13.2002914 2.20000982,13.2002914 L10.3986701,13.2002914 C10.3132936,12.9651772 10.2686535,12.7172258 10.2666702,12.4671038 L10.2666702,2.00451635 L8.80000466,2.84035024 C8.57028404,2.96031163 8.29639252,2.96031163 8.0666719,2.84035024 L5.86667362,1.57926752 Z M13.2000012,8.80116565 L11.7333357,8.80116565 L11.7333357,12.4671038 C11.7333357,12.8720321 12.06166,13.2002914 12.4666685,13.2002914 C12.871677,13.2002914 13.2000012,12.8720321 13.2000012,12.4671038 L13.2000012,8.80116565 Z M8.0666719,10.2675409 C8.4716804,10.2675409 8.80000466,10.5958002 8.80000466,11.0007285 C8.80000466,11.4056569 8.4716804,11.7339162 8.0666719,11.7339162 L3.66667534,11.7339162 C3.26166684,11.7339162 2.93334258,11.4056569 2.93334258,11.0007285 C2.93334258,10.5958002 3.26166684,10.2675409 3.66667534,10.2675409 Z M8.0666719,7.3347904 C8.4716804,7.3347904 8.80000466,7.66304968 8.80000466,8.06797802 C8.80000466,8.47290637 8.4716804,8.80116565 8.0666719,8.80116565 L3.66667534,8.80116565 C3.26166684,8.80116565 2.93334258,8.47290637 2.93334258,8.06797802 C2.93334258,7.66304968 3.26166684,7.3347904 3.66667534,7.3347904 Z M6.60000638,4.40203989 C7.00501488,4.40203989 7.33333914,4.73029917 7.33333914,5.13522751 C7.33333914,5.54015586 7.00501488,5.86841514 6.60000638,5.86841514 L5.13334086,5.86841514 C4.72833236,5.86841514 4.4000081,5.54015586 4.4000081,5.13522751 C4.4000081,4.73029917 4.72833236,4.40203989 5.13334086,4.40203989 Z"></path></clipPath></defs><g transform="translate(-35.0 -678.0)"><g clip-path="url(#i0)"><g transform="translate(15.0 199.0)"><g transform="translate(0.0 90.0)"><g transform="translate(0.0 341.0)"><g transform="translate(0.0 29.0)"><g transform="translate(12.0 11.0)"><g transform="translate(8.666666666667158 8.666666666666664)"><g clip-path="url(#i1)"><polygon points="0,-1.38777878e-17 14.6666667,-1.38777878e-17 14.6666667,14.6666667 0,14.6666667 0,-1.38777878e-17" stroke="none" fill="#6F89A4"></polygon></g></g></g></g></g></g></g></g></g></svg>