<?xml version="1.0" encoding="UTF-8"?>
<svg width="18px" height="22px" viewBox="0 0 18 22" version="1.1" xmlns="http://www.w3.org/2000/svg" xmlns:xlink="http://www.w3.org/1999/xlink">
    <title>8034B8AD-ED23-4A0A-8925-B47B64B8E273@2x</title>
    <g id="ASGs" stroke="none" stroke-width="1" fill="none" fill-rule="evenodd">
        <g id="Budget-view.hide-attained" transform="translate(-64.000000, -156.000000)">
            <g id="Component-/-Monthly-budget-/-Essentials" transform="translate(0.000000, 80.000000)">
                <g id="Group-2" transform="translate(0.000000, 76.003668)">
                    <g id="Graphics-/-Flags-/-Icon-+-Flag-Copy-5" transform="translate(64.000000, 0.000000)">
                        <g id="Graphics-/-*Misc-/-Flag-/-Combo" fill="#33982A">
                            <rect id="Rectangle" x="16.9970401" y="4.03364905" width="1" height="17.7641971"></rect>
                            <path d="M17.806423,3.04705403 C17.806423,3.04705403 11.0963374,-2.35747263 8.24661994,1.22896276 C4.48516908,5.96224896 1.94288636,4.17210711 0.631223515,2.73085398 C0.631223515,2.73085398 4.84672194,9.45909824 0,14.0183795 C0,14.0183795 5.17754374,15.9872514 8.36713756,14.195352 C11.5567314,12.4034525 17.0735126,13.0185108 17.806423,15.2506956 L17.806423,3.04705403 Z" id="Path"></path>
                        </g>
                        <g id="Component-/-*Artwork-/-Target-yellow" transform="translate(5.699404, 2.016340)" fill="#FFFFFF">
                            <path d="M4.78908279,0 C7.43402019,0 9.57816559,2.15456095 9.57816559,4.81234658 C9.57816559,7.47013221 7.43402019,9.62469316 4.78908279,9.62469316 C2.1441454,9.62469316 0,7.47013221 0,4.81234658 C0,2.15456095 2.1441454,0 4.78908279,0 Z M4.78908279,0.874972105 C2.62504311,0.874972105 0.870742326,2.6377947 0.870742326,4.81234658 C0.870742326,6.98689846 2.62504311,8.74972105 4.78908279,8.74972105 C6.95312248,8.74972105 8.70742326,6.98689846 8.70742326,4.81234658 C8.70742326,2.6377947 6.95312248,0.874972105 4.78908279,0.874972105 Z M4.78908279,1.74994421 C6.47222477,1.74994421 7.83668093,3.12102845 7.83668093,4.81234658 C7.83668093,6.50366471 6.47222477,7.87474895 4.78908279,7.87474895 C3.10594082,7.87474895 1.74148465,6.50366471 1.74148465,4.81234658 C1.74148465,3.12102845 3.10594082,1.74994421 4.78908279,1.74994421 Z M4.78908279,2.62491632 C3.58683852,2.62491632 2.61222698,3.6042622 2.61222698,4.81234658 C2.61222698,6.02043095 3.58683852,6.99977684 4.78908279,6.99977684 C5.99132706,6.99977684 6.96593861,6.02043095 6.96593861,4.81234658 C6.96593861,3.6042622 5.99132706,2.62491632 4.78908279,2.62491632 Z M4.78908279,3.49988842 C5.51042935,3.49988842 6.09519628,4.08749595 6.09519628,4.81234658 C6.09519628,5.5371972 5.51042935,6.12480474 4.78908279,6.12480474 C4.06773623,6.12480474 3.4829693,5.5371972 3.4829693,4.81234658 C3.4829693,4.08749595 4.06773623,3.49988842 4.78908279,3.49988842 Z M4.78908279,4.37486053 C4.54863394,4.37486053 4.35371163,4.5707297 4.35371163,4.81234658 C4.35371163,5.05396345 4.54863394,5.24983263 4.78908279,5.24983263 C5.02953165,5.24983263 5.22445396,5.05396345 5.22445396,4.81234658 C5.22445396,4.5707297 5.02953165,4.37486053 4.78908279,4.37486053 Z" id="Combined-Shape"></path>
                        </g>
                    </g>
                </g>
            </g>
        </g>
    </g>
</svg>