<?xml version="1.0" encoding="UTF-8"?>
<svg width="203px" height="138px" viewBox="0 0 203 138" version="1.1" xmlns="http://www.w3.org/2000/svg" xmlns:xlink="http://www.w3.org/1999/xlink">
    <title>5D0B0524-6980-4E93-8BC1-77CF7B45D80D</title>
    <defs>
        <filter x="-64.5%" y="-472.5%" width="228.9%" height="1045.0%" filterUnits="objectBoundingBox" id="filter-1">
            <feGaussianBlur stdDeviation="18.9597345" in="SourceGraphic"></feGaussianBlur>
        </filter>
    </defs>
    <g id="🚀-General-flow.Firstbank" stroke="none" stroke-width="1" fill="none" fill-rule="evenodd">
        <g id="SB.xix" transform="translate(-77.000000, -498.000000)">
            <g id="Component-/-Utilities-/-Empty-states-/-Content-+-Icon-top--/-Large-Copy" transform="translate(15.000000, 498.000000)">
                <g id="Empty-artwork" transform="translate(99.094203, 0.000000)">
                    <g id="Group-5" transform="translate(-0.000000, 0.000000)">
                        <ellipse id="Oval" fill="#CDE0E7" cx="65.5181159" cy="53.5" rx="53.4841763" ry="53.5"></ellipse>
                        <g id="Group-4" transform="translate(0.000000, 25.412500)">
                            <ellipse id="shadow" fill="#101010" opacity="0.558141799" filter="url(#filter-1)" cx="64.1810115" cy="49.4875" rx="44.1244454" ry="6.01875"></ellipse>
                            <rect id="Rectangle" fill="#FFFFFF" x="0" y="0" width="131.036232" height="54.8375" rx="13.7888978"></rect>
                            <g id="Group-3-Copy-2" opacity="0.6" transform="translate(10.696835, 17.387500)" fill="#8B714F">
                                <rect id="Rectangle" x="0" y="0" width="12.3631764" height="12.4972656" rx="5.51555913"></rect>
                                <rect id="Rectangle-Copy" x="18.8135293" y="0" width="32.2517646" height="6.5203125" rx="3.26015625"></rect>
                                <rect id="Rectangle-Copy-5" x="89.7674114" y="0" width="17.2009411" height="6.5203125" rx="3.26015625"></rect>
                                <rect id="Rectangle-Copy-4" x="18.8135293" y="14.8796875" width="12.3631764" height="6.5203125" rx="3.26015625"></rect>
                                <rect id="Rectangle-Copy-6" x="94.6051761" y="14.8796875" width="12.3631764" height="6.5203125" rx="3.26015625"></rect>
                            </g>
                            <path d="M0.668211987,41.4865607 L0.668211987,44.1375 C0.668211987,49.5976514 5.02902163,54.0388839 10.4566973,54.1664684 L10.6968353,54.169288 L13.4414658,54.169288 L13.4414658,55.505712 L10.6968353,55.505712 C4.50156543,55.505712 -0.535848911,50.5472891 -0.665645933,44.3815048 L-0.668211987,44.1375 L-0.668211987,41.4865607 L0.668211987,41.4865607 Z M131.704444,41.4684051 L131.704444,44.1375 C131.704444,50.3344076 126.747488,55.3733098 120.583337,55.5031452 L120.339397,55.505712 L117.622185,55.505712 L117.622185,54.169288 L120.339397,54.169288 C125.797738,54.169288 130.237654,49.8071882 130.365201,44.3777175 L130.36802,44.1375 L130.36802,41.4684051 L131.704444,41.4684051 Z M120.339397,-0.668211987 C126.534666,-0.668211987 131.572081,4.29021086 131.701878,10.4559952 L131.704444,10.7 L131.704444,14.8177235 L130.36802,14.8177235 L130.36802,10.7 C130.36802,5.23984857 126.00721,0.798616117 120.579535,0.671031591 L120.339397,0.668211987 L117.710996,0.668211987 L117.710996,-0.668211987 L120.339397,-0.668211987 Z M13.3725837,-0.668211987 L13.3725837,0.668211987 L10.6968353,0.668211987 C5.23849355,0.668211987 0.798577505,5.03031181 0.671030756,10.4597825 L0.668211987,10.7 L0.668211987,14.7440538 L-0.668211987,14.7440538 L-0.668211987,10.7 C-0.668211987,4.50309239 4.28874431,-0.535809784 10.4528951,-0.665645174 L10.6968353,-0.668211987 L13.3725837,-0.668211987 Z" id="Shape-Copy" fill="#9BC1D0" fill-rule="nonzero"></path>
                        </g>
                    </g>
                </g>
            </g>
        </g>
    </g>
</svg>