<?xml version="1.0" encoding="UTF-8"?>
<svg width="172px" height="172px" viewBox="0 0 172 172" version="1.1" xmlns="http://www.w3.org/2000/svg" xmlns:xlink="http://www.w3.org/1999/xlink">
    <title>C293F28C-42AF-4652-8BF2-E70EFDD97F72</title>
    <defs>
        <circle id="path-1" cx="85.2685928" cy="85.2685928" r="66"></circle>
        <filter x="-88.7%" y="-27.0%" width="277.4%" height="153.9%" filterUnits="objectBoundingBox" id="filter-3">
            <feGaussianBlur stdDeviation="11" in="SourceGraphic"></feGaussianBlur>
        </filter>
        <circle id="path-4" cx="85.2685928" cy="88.5983446" r="66.4473988"></circle>
        <path d="M25.4961909,8.7858958 C31.3803668,5.46565952 38.5850975,5.51990989 44.4186074,8.92837831 C50.2521173,12.3368467 53.8367846,18.5867466 53.8333337,25.3430387 L53.8333333,38.0113227 C53.8333333,39.7602244 55.2510983,41.1779894 57,41.1779894 C58.7489017,41.1779894 60.16667,39.7602244 60.16667,38.0113227 L60.16667,25.3446561 C60.1712674,16.337884 55.3917109,8.00468426 47.6136978,3.46005969 C39.8356846,-1.08456487 30.2293769,-1.1568987 22.3838091,3.27008301 C20.8606595,4.1295435 20.3226331,6.06103065 21.1820936,7.58418029 C22.0415541,9.10732994 23.9730412,9.6453563 25.4961909,8.7858958 Z M15.8333333,41.1779894 L15.8333333,25.3446561 C15.8294989,22.2998909 16.5555482,19.3026107 17.9504737,16.6006655 C18.7527645,15.0466428 18.1433655,13.1364733 16.5893428,12.3341824 C15.0353201,11.5318915 13.1251505,12.1412906 12.3228597,13.6953133 C10.462959,17.2979068 9.4948933,21.2942805 9.5,25.3486466 L9.5,41.1779894 C9.5,44.6757928 6.66447008,47.5113227 3.16666667,47.5113227 C-1.05555556,47.5113227 -1.05555556,53.8446561 3.16666667,53.8446561 L50.6666667,53.8446561 C52.4155684,53.8446561 53.8333333,52.4268911 53.8333333,50.6779894 C53.8333333,48.9290877 52.4155684,47.5113227 50.6666667,47.5113227 L14.1387589,47.5113227 C15.2165029,45.6482247 15.8333333,43.4851413 15.8333333,41.1779894 Z M37.5725,61.7557118 C37.0059869,62.7323187 35.9623586,63.3334343 34.8333333,63.3334343 C33.704308,63.3334343 32.6606798,62.7323187 32.0941667,61.7557118 C31.216617,60.2429119 29.2788558,59.7279397 27.7660558,60.6054894 C26.2532558,61.4830391 25.7382837,63.4208003 26.6158333,64.9336003 C28.3153727,67.8634209 31.4462575,69.6667676 34.8333333,69.6667676 C38.2204092,69.6667676 41.351294,67.8634209 43.0508333,64.9336003 C43.928383,63.4208003 43.4134109,61.4830391 41.9006109,60.6054894 C40.3878109,59.7279397 38.4500497,60.2429119 37.5725,61.7557118 Z" id="path-6"></path>
    </defs>
    <g id="🔔-Nofifications" stroke="none" stroke-width="1" fill="none" fill-rule="evenodd">
        <g id="Notifications.es" transform="translate(-94.000000, -180.000000)">
            <g id="Component-/-Utilities-/-Empty-states-/-Content-+-Icon-top--/-Large" transform="translate(15.000000, 180.731407)">
                <g id="Empty-artwork" transform="translate(79.731407, 0.000000)">
                    <mask id="mask-2" fill="white">
                        <use xlink:href="#path-1" transform="translate(85.268593, 85.268593) rotate(69.000000) translate(-85.268593, -85.268593) "></use>
                    </mask>
                    <use id="Oval-Copy" fill="#CDE0E7" transform="translate(85.268593, 85.268593) rotate(69.000000) translate(-85.268593, -85.268593) " xlink:href="#path-1"></use>
                    <ellipse id="Oval-Copy" fill="#101010" opacity="0.0517062233" filter="url(#filter-3)" mask="url(#mask-2)" transform="translate(84.930358, 140.695063) rotate(-90.000000) translate(-84.930358, -140.695063) " cx="84.9303575" cy="140.695063" rx="18.6029412" ry="61.2205882"></ellipse>
                    <mask id="mask-5" fill="white">
                        <use xlink:href="#path-4"></use>
                    </mask>
                    <use id="Oval-Copy" fill="#FFFFFF" xlink:href="#path-4"></use>
                    <g id="bell" mask="url(#mask-5)">
                        <g transform="translate(50.435259, 64.233457)">
                            <mask id="mask-7" fill="white">
                                <use xlink:href="#path-6"></use>
                            </mask>
                            <use id="Combined-Shape" stroke="none" fill="#C7BBAA" fill-rule="evenodd" xlink:href="#path-6"></use>
                        </g>
                    </g>
                    <path d="M52.196088,68.4839515 L111.862755,128.150618 C113.099415,129.387278 115.104437,129.387278 116.341098,128.150618 C117.577758,126.913958 117.577758,124.908936 116.341098,123.672275 L56.674431,64.0056086 C55.4377707,62.7689483 53.4327483,62.7689483 52.196088,64.0056086 C50.9594278,65.2422688 50.9594278,67.2472913 52.196088,68.4839515 Z" id="Shape" fill="#C7BBAA" mask="url(#mask-5)"></path>
                </g>
            </g>
        </g>
    </g>
</svg>