<?xml version="1.0" encoding="UTF-8"?>
<svg width="24px" height="24px" viewBox="0 0 24 24" version="1.1" xmlns="http://www.w3.org/2000/svg" xmlns:xlink="http://www.w3.org/1999/xlink">
    <title>8BABA07D-02B3-4C6F-A506-859FBCF9F689</title>
    <g id="🪴-Overview" stroke="none" stroke-width="1" fill="none" fill-rule="evenodd">
        <g id="Overview.Get-started.i" transform="translate(-320.000000, -40.000000)">
            <g id="Screens-/-Overview-/-State-#1-(Income)" transform="translate(0.000000, 23.949646)">
                <g id="Topbar" transform="translate(0.000000, 0.050354)">
                    <g id="Group" transform="translate(224.000000, 6.000000)">
                        <g id="Action-Icon-3" transform="translate(86.000000, 0.000000)">
                            <g id="Icon-Placeholder" transform="translate(10.000000, 10.000000)">
                                <rect id="Box-24pt" x="0" y="0" width="24" height="24"></rect>
                                <path d="M15.7646965,2.10769515 C17.1873648,2.10769515 18.5029708,2.86334023 19.2198121,4.09221105 L22.9486566,10.4845159 C23.6751691,11.7299659 23.6751691,13.2700341 22.9486566,14.5154841 L19.2198121,20.9077889 C18.5029708,22.1366598 17.1873648,22.8923048 15.7646965,22.8923048 L8.2353035,22.8923048 C6.81263524,22.8923048 5.49702921,22.1366598 4.7801879,20.9077889 L1.05134341,14.5154841 C0.324830878,13.2700341 0.324830878,11.7299659 1.05134341,10.4845159 L4.7801879,4.09221105 C5.49702921,2.86334023 6.81263524,2.10769515 8.2353035,2.10769515 L15.7646965,2.10769515 Z M14.3646965,4.50769515 L9.6353035,4.50769515 C8.21263524,4.50769515 6.89702921,5.26334023 6.1801879,6.49221105 L3.85134341,10.4845159 C3.12483088,11.7299659 3.12483088,13.2700341 3.85134341,14.5154841 L6.1801879,18.5077889 C6.89702921,19.7366598 8.21263524,20.4923048 9.6353035,20.4923048 L14.3646965,20.4923048 C15.7873648,20.4923048 17.1029708,19.7366598 17.8198121,18.5077889 L20.1486566,14.5154841 C20.8751691,13.2700341 20.8751691,11.7299659 20.1486566,10.4845159 L17.8198121,6.49221105 C17.1029708,5.26334023 15.7873648,4.50769515 14.3646965,4.50769515 Z M12,7.65025774 C14.6509668,7.65025774 16.8,9.82156131 16.8,12.5 C16.8,15.1784387 14.6509668,17.3497423 12,17.3497423 C9.3490332,17.3497423 7.2,15.1784387 7.2,12.5 C7.2,9.82156131 9.3490332,7.65025774 12,7.65025774 Z M12,10.0751289 C10.6745166,10.0751289 9.6,11.1607807 9.6,12.5 C9.6,13.8392193 10.6745166,14.9248711 12,14.9248711 C13.3254834,14.9248711 14.4,13.8392193 14.4,12.5 C14.4,11.1607807 13.3254834,10.0751289 12,10.0751289 Z" id="🎨-Icon-Style" fill="#6F89A5"></path>
                            </g>
                        </g>
                    </g>
                </g>
            </g>
        </g>
    </g>
</svg>