<?xml version="1.0" encoding="UTF-8"?>
<svg width="14px" height="33px" viewBox="0 0 14 33" version="1.1" xmlns="http://www.w3.org/2000/svg" xmlns:xlink="http://www.w3.org/1999/xlink">
    <title>E62E9F9A-F050-4CF7-9AD8-61DEC523E928</title>
    <g id="🚀-General-flow.Firstbank" stroke="none" stroke-width="1" fill="none" fill-rule="evenodd">
        <g id="SB.ix" transform="translate(-236.000000, -570.000000)" fill="#FFFFFF" stroke="#979797">
            <g id="Dynamic-view" transform="translate(0.000000, 50.000000)">
                <g id="Success" transform="translate(0.381295, 506.000000)">
                    <g id="Tree" transform="translate(236.118705, 14.596492)">
                        <path d="M3.23215426,20.0060327 C6.341234,20.3711021 7.91322041,22.8632267 7.94811352,27.4824066 C7.94811352,27.4824066 7.94811352,27.4824066 7.94811352,27.4824066 C7.95640001,28.5793797 7.07384518,29.4753696 5.97687213,29.483656 C4.87989908,29.4919425 3.98390919,28.6093877 3.9756227,27.5124147 C3.97369729,27.257527 4.02084897,27.004651 4.11450479,26.7675855 C6.13393824,21.6558219 8.36529292,19.1087375 10.8085378,19.1263203" id="Path-32-Copy" transform="translate(7.020346, 25.249890) rotate(-9.000000) translate(-7.020346, -25.249890) "></path>
                        <path d="M1.93048367,7.83819547 L1.93048367,5.6964207 C1.93050991,3.00599222 4.11153312,0.824969017 6.80196159,0.824969017 C8.40742809,0.824969017 9.90981079,1.61599946 10.8183449,2.93966421 C10.8183449,2.93966421 10.8183449,2.93966421 10.8183449,2.93966421 C14.8537856,8.81899264 11.4288642,16.436222 8.5609669,13.6643111 C5.69306956,10.8924003 11.1912181,7.85807632 12.4110737,13.9411155 C13.6309294,20.0241547 11.4839889,24.6661161 7.1609876,24.2758382 C5.78997596,24.1520641 2.87279645,25.7080859 1.07287538,23.6751741 C-0.727045691,21.6422622 0.28181356,18.8675006 0.28181356,12.1161369 C0.726412495,9.09023304 2.20275231,8.32386927 4.71083299,9.8170456 C5.23029608,10.5556796 5.29868653,11.5307457 4.91600434,12.742244" id="Path-33-Copy"></path>
                    </g>
                </g>
            </g>
        </g>
    </g>
</svg>