<?xml version="1.0" encoding="UTF-8"?>
<svg width="23px" height="27px" viewBox="0 0 23 27" version="1.1" xmlns="http://www.w3.org/2000/svg" xmlns:xlink="http://www.w3.org/1999/xlink">
    <title>1D2C4B96-39EF-470B-AF42-D0ADEE4152B7@1x</title>
    <defs>
        <path d="M5.40306777,0 C6.48817029,0 7.36781968,0.887575014 7.36781968,1.98245428 C7.36781968,2.90587269 6.74210808,3.68183159 5.89515202,3.90221959 L5.8949437,9.88497117 C7.94366783,9.65612888 9.57029381,8.01464125 9.79677922,5.94736284 L8.84138362,5.94736284 C8.57010799,5.94736284 8.35019564,5.72546909 8.35019564,5.45174927 C8.35019564,5.17802945 8.57010799,4.9561357 8.84138362,4.9561357 L10.3149476,4.9561357 C10.5862232,4.9561357 10.8061355,5.17802945 10.8061355,5.45174927 C10.8061355,8.46266725 8.3870997,10.9034985 5.40306777,10.9034985 L5.18575919,10.8991697 C2.30247313,10.7840945 8.8817842e-16,8.38923023 8.8817842e-16,5.45174927 C8.8817842e-16,5.17802945 0.219912349,4.9561357 0.491187979,4.9561357 L1.96475192,4.9561357 C2.23602755,4.9561357 2.45593989,5.17802945 2.45593989,5.45174927 C2.45593989,5.72546909 2.23602755,5.94736284 1.96475192,5.94736284 L1.00935631,5.94736284 C1.23584172,8.01464125 2.8624677,9.65612888 4.91119183,9.88497117 L4.91098351,3.90221959 C4.06402745,3.68183159 3.43831585,2.90587269 3.43831585,1.98245428 C3.43831585,0.887575014 4.31796525,0 5.40306777,0 Z M5.40306777,0.99122714 C4.86051651,0.99122714 4.42069181,1.43501465 4.42069181,1.98245428 C4.42069181,2.52989391 4.86051651,2.97368142 5.40306777,2.97368142 C5.94561903,2.97368142 6.38544372,2.52989391 6.38544372,1.98245428 C6.38544372,1.43501465 5.94561903,0.99122714 5.40306777,0.99122714 Z" id="path-1"></path>
    </defs>
    <g id="🚀-General-flow.Firstbank" stroke="none" stroke-width="1" fill="none" fill-rule="evenodd">
        <g id="SB.xx" transform="translate(-320.000000, -179.000000)">
            <g id="Screens-/-SDV-/-State-#2-(In-progress)" transform="translate(-0.005510, 0.000000)">
                <g id="Group-3" transform="translate(13.005510, 179.004502)">
                    <g id="Group-2" transform="translate(0.000000, -0.000000)">
                        <g id="Component-/-*Artwork-/-Flag" transform="translate(307.413333, 0.000000)">
                            <g id="Graphics-/-*Misc-/-Flag-/-Combo" fill="#FBC586">
                                <rect id="Rectangle" x="20.7741601" y="4.95038747" width="1" height="21.8015146"></rect>
                                <path d="M21.7634058,3.73956631 C21.7634058,3.73956631 13.5621902,-2.89326186 10.0792022,1.50827248 C5.48187332,7.31730554 2.37463888,5.12031327 0.771495407,3.35150261 C0.771495407,3.35150261 5.92377126,11.6088933 0,17.2043748 C0,17.2043748 6.32810901,19.6207177 10.2265015,17.4215683 C14.1248939,15.222419 20.8676265,15.9772633 21.7634058,18.7167627 L21.7634058,3.73956631 Z" id="Path"></path>
                            </g>
                            <g id="Component-/-*Artwork-/-Target-yellow" transform="translate(7.457127, 3.052815)">
                                <mask id="mask-2" fill="white">
                                    <use xlink:href="#path-1"></use>
                                </mask>
                                <use id="Combined-Shape" fill="#33982A" xlink:href="#path-1"></use>
                            </g>
                        </g>
                    </g>
                </g>
            </g>
        </g>
    </g>
</svg>