<?xml version="1.0" encoding="UTF-8"?>
<svg width="17px" height="36px" viewBox="0 0 17 36" version="1.1" xmlns="http://www.w3.org/2000/svg" xmlns:xlink="http://www.w3.org/1999/xlink">
    <title>51A61DC5-3CE9-43D2-9248-54ACD4869B83</title>
    <g id="🚀-General-flow.Firstbank" stroke="none" stroke-width="1" fill="none" fill-rule="evenodd">
        <g id="SB.ix" transform="translate(-108.000000, -567.000000)" fill="#FFFFFF" stroke="#979797">
            <g id="Dynamic-view" transform="translate(0.000000, 50.000000)">
                <g id="Success" transform="translate(0.381295, 506.000000)">
                    <g id="Tree" transform="translate(108.618705, 12.471492)">
                        <path d="M3.99226537,20.4734222 C7.39627038,20.8668937 9.09982821,23.7023341 9.10293889,28.9797435 C9.10293889,28.9797435 9.10293889,28.9797435 9.10293889,28.9797435 C9.10364588,30.1791881 8.13187701,31.1521032 6.93243238,31.1528102 C5.73298774,31.1535172 4.76007261,30.1817483 4.75936562,28.9823037 C4.75920838,28.7155375 4.80820039,28.451025 4.90388854,28.202011 C7.15659509,22.339625 9.6222359,19.4092219 12.3007928,19.4107946" id="Path-32-Copy" transform="translate(8.146529, 26.423632) rotate(-9.000000) translate(-8.146529, -26.423632) "></path>
                        <path d="M1.60698633,25.5636804 C1.49200948,25.5636804 1.3773648,25.5513073 1.26502249,25.5267739 C0.398026826,25.3374382 -0.151709599,24.4793476 0.037151815,23.6101748 L3.49256665,7.70776036 C3.51202078,7.61822914 3.54997475,7.53377879 3.60398142,7.45985438 C3.81744715,7.16766219 4.22677058,7.10427634 4.51822882,7.31828093 C4.85675463,7.56684007 5.17321239,7.81116022 5.46760208,8.05124136 L5.557,8.125 L5.57219016,7.98001012 C5.77457233,6.05486276 6.11049846,3.72144799 6.57996856,0.97976581 L6.6552052,0.543475819 C6.69874494,0.292728353 6.88307764,0.0898841916 7.12806927,0.0231247688 C7.47668757,-0.0718725882 7.83611623,0.134437479 7.93087869,0.483930369 L12.87,18.702 L14.5358821,23.6101748 C14.7247436,24.4793476 14.1750071,25.3374382 13.3080115,25.5267739 C13.1956692,25.5513073 13.0810245,25.5636804 12.9660476,25.5636804 Z M5.557,8.125 L5.54134487,8.28058795 C5.00610566,13.6299184 5.54957616,15.6814435 7.17175636,14.435163 C9.22616325,12.8568137 8.73032999,10.7885951 5.68425659,8.23050741 L5.557,8.125 Z" id="Combined-Shape"></path>
                    </g>
                </g>
            </g>
        </g>
    </g>
</svg>