<?xml version="1.0" encoding="UTF-8"?>
<svg width="24px" height="31px" viewBox="0 0 24 31" version="1.1" xmlns="http://www.w3.org/2000/svg" xmlns:xlink="http://www.w3.org/1999/xlink">
    <title>14E254E3-847D-4AFB-9ADD-00DF058BB30C</title>
    <g id="🚀-General-flow.Firstbank" stroke="none" stroke-width="1" fill="none" fill-rule="evenodd">
        <g id="SB.ix" transform="translate(-12.000000, -571.000000)">
            <g id="Dynamic-view" transform="translate(0.000000, 50.000000)">
                <g id="Success" transform="translate(0.381295, 506.000000)">
                    <g id="Character" transform="translate(11.842006, 15.474576)">
                        <path d="M1.66613961,16.0147439 C1.76625289,15.9881145 4.97556094,16.7437793 4.97556094,16.7437793 L4.6140165,17.8050278 C4.6140165,17.8050278 3.55124196,17.4440025 2.39447461,17.5374238 C1.23770726,17.6308451 1.07726372,17.0292818 1.07726372,17.0292818 L1.66613961,16.0147439 Z" id="Path" fill="#B28B67" fill-rule="nonzero"></path>
                        <path d="M13.5463939,9.1770905 C13.688476,9.21376055 14.7267687,9.80964875 15.7056055,9.83671474 C16.6844422,9.86378072 17.3445778,10.3169177 17.5023983,10.5840851 C17.6602188,10.8512526 17.011887,11.5925113 16.7277227,11.5187347 C16.4435583,11.4449581 16.5174411,11.1612018 16.0387335,10.9608262 C15.5600259,10.7604506 13.1822264,9.99125278 13.1297653,9.90176041 C13.0773042,9.81226804 13.5463939,9.1770905 13.5463939,9.1770905 Z" id="Path" fill="#B28B67" fill-rule="nonzero"></path>
                        <path d="M15.5062533,2.7995588 C15.5591867,2.91115522 15.5187222,3.04464742 15.4126976,3.10819833 C15.1993558,3.23916277 14.8544241,3.40199523 14.8233846,3.62594442 C14.779667,3.95073623 14.4299263,5.49524353 14.2773519,5.7842384 C14.1247775,6.07323326 13.0060445,4.06947732 13.0060445,4.06947732 C13.0060445,4.06947732 13.2482399,4.23536562 13.1336998,3.62419823 C13.0191598,3.01303084 12.62439,2.03210718 12.6501833,1.60559965 C12.6759767,1.17909212 12.9697589,0.491528809 13.4808175,0.395924768 C13.9918761,0.300320726 14.0176694,0.296828341 14.3796511,0.371478072 C14.4810759,0.392432383 14.717588,0.7979856 14.717588,0.7979856 C14.717588,0.7979856 15.0550878,1.47288902 15.316519,1.74049302 L15.4743394,1.90201583 C15.5011288,1.92941449 15.5153081,1.96669956 15.5134841,2.00494848 C15.5116601,2.0431974 15.493997,2.07896833 15.4647216,2.10370107 L15.2575002,2.27962997 L15.5062533,2.7995588 Z" id="Path" fill="#B28B67" fill-rule="nonzero"></path>
                        <path d="M10.7948089,9.56474525 C10.8949222,9.53811581 13.4760085,10.768745 13.4760085,10.768745 C13.4760085,10.768745 13.8034533,10.3758517 14.1645605,9.31198388 C14.5671995,8.13068463 15.1814316,8.29089779 14.961095,7.06245134 C14.7407583,5.83400489 14.0334078,3.98435044 13.4510895,3.8171525 C12.8687713,3.64995457 11.6586685,5.15168015 11.4776776,6.4870809 C11.2966868,7.82248164 10.7948089,9.56474525 10.7948089,9.56474525 Z" id="Path" fill="#FEF6F6" fill-rule="nonzero"></path>
                        <path d="M9.87105633,13.3500541 L12.905494,15.8680638 C12.905494,15.8680638 13.0366468,19.5870173 11.4803007,19.7869564 C9.92395461,19.9868954 4.26689886,18.9164794 3.71124833,18.8496875 C3.1555978,18.7828957 4.03956741,15.6515359 4.03956741,15.6515359 C4.03956741,15.6515359 8.26487218,16.9947945 9.22097581,16.9550686 C10.1770794,16.9153427 9.87105633,13.3500541 9.87105633,13.3500541 Z" id="Path" fill="#D3E4DF" fill-rule="nonzero"></path>
                        <path d="M16.2630047,23.0200319 L16.8169065,26.3050566 C16.8169065,26.3050566 18.1542275,26.4857875 18.3033045,26.232153 C18.4523815,25.9785186 17.7555231,24.9831888 17.5163879,24.0817169 L17.1373564,22.6795243 L16.2630047,23.0200319 Z" id="Path" fill="#B28B67" fill-rule="nonzero"></path>
                        <ellipse id="Oval" fill="#675F62" fill-rule="nonzero" cx="12.937845" cy="29.4818174" rx="1" ry="1"></ellipse>
                        <ellipse id="Oval" fill="#675F62" fill-rule="nonzero" cx="20.05944" cy="27.5880716" rx="1" ry="1"></ellipse>
                        <path d="M9.52393869,28.2791273 C9.52393869,28.2791273 10.0529215,29.2238174 12.1806564,28.7519089 C14.3083914,28.2800003 20.3995628,26.5058687 20.805262,26.4159398 C21.2109612,26.3260109 22.358985,25.7528232 22.4271845,25.1010568" id="Path" stroke="#473E56" stroke-width="0.852569343"></path>
                        <path d="M10.7948089,9.56474525 L13.7317564,10.4430801 C13.7317564,10.4430801 12.8399177,11.5933844 13.5083596,12.4883081 C14.1768015,13.3832318 15.9412433,15.1665309 16.6429105,16.5888047 C17.3445778,18.0110786 18.5398166,22.0893112 18.7002602,22.6917477 C18.8607037,23.2941841 15.6242908,24.0450469 15.6242908,24.0450469 C15.6242908,24.0450469 14.5960531,19.384459 14.1081649,18.7628145 C13.6202766,18.1411699 9.64897098,15.3363481 9.36917843,13.480582 C9.08938587,11.6248159 10.3130411,10.9769785 10.553925,10.2693339 L10.7948089,9.56474525 Z" id="Path" fill="#C2D5D0" fill-rule="nonzero"></path>
                        <path d="M11.6726581,6.12998452 C11.4829238,6.21336522 10.8420239,8.8741261 10.7777591,9.24213618 C10.7134942,9.61014625 11.485984,11.8753945 11.6958284,12.3494858 C11.9056728,12.8235771 11.8068711,13.8865718 12.0276449,14.1292925 C12.2484187,14.3720133 12.8792635,14.7740741 13.4073719,14.428328 C13.9354804,14.0825819 13.1481266,13.0697902 12.8438522,12.6384807 C12.5395778,12.2071711 12.0744227,9.35214631 12.0857893,9.1207758 C12.0971559,8.88940528 13.0952284,6.52462404 13.0952284,6.52462404 L11.6726581,6.12998452 Z" id="Path" fill="#B28B67" fill-rule="nonzero"></path>
                        <path d="M11.3574543,6.84112143 C11.3574543,6.84112143 12.5295228,7.58892839 13.0624402,7.19035994 C13.5105454,6.85640062 13.3640915,5.50135521 13.6849786,5.09492889 C14.0058657,4.68850258 13.1236448,3.79619819 12.428098,4.40998487 C11.7325512,5.02377155 11.3574543,6.84112143 11.3574543,6.84112143 Z" id="Path" fill="#E8E3E3" fill-rule="nonzero"></path>
                        <path d="M0.840314395,15.5371603 C0.840314395,15.5371603 -0.585316114,20.0995248 0.277231876,19.8699005 C0.57844605,19.7900122 0.504563328,19.9170477 1.04666141,19.1277687 C1.58875948,18.3384897 1.9363143,18.0333425 1.82920621,17.6325913 C1.72209812,17.2318401 1.49520385,17.1851295 1.76275548,16.5774545 L2.03030711,15.970216 L0.840314395,15.5371603 Z" id="Path" fill="#473E56" fill-rule="nonzero"></path>
                        <path d="M16.7325316,27.2589143 C16.7325316,27.2589143 21.4601514,26.5115439 20.8717127,25.8414425 C20.6662401,25.6074527 20.812694,25.6170567 19.8662082,25.4812903 C18.9197225,25.3455238 18.4891042,25.1709045 18.1769607,25.4441837 C17.8648171,25.7174628 17.9233987,25.941412 17.2588913,25.9715338 L16.5948212,26.0012191 L16.7325316,27.2589143 Z" id="Path" fill="#473E56" fill-rule="nonzero"></path>
                        <path d="M14.2882813,0.00957966822 C14.1461994,-0.0233525229 13.9980035,0.0301769927 13.9098999,0.146254077 C13.8217962,0.262331161 13.8102408,0.419274601 13.8803962,0.546970422 C13.7464685,0.58238712 13.6436452,0.689655966 13.6140689,0.824812357 C13.5844926,0.959968748 13.6331362,1.10028799 13.7400628,1.18825963 C13.7043938,1.2377613 13.6816997,1.29539056 13.6740492,1.35589412 C13.6667645,1.42146184 13.6771796,1.48778176 13.7042143,1.5479753 C13.5702,1.56599068 13.4567524,1.65568342 13.4084544,1.78180582 C13.3601564,1.90792821 13.3847273,2.05032282 13.4725111,2.15303101 C13.2741422,2.19816746 13.149398,2.39466444 13.1931558,2.59307153 C13.1649575,2.59564663 13.1371133,2.60120748 13.1100923,2.60966036 C12.9747424,2.65170525 12.8706472,2.76043586 12.8346715,2.89734558 C12.7843834,2.89382351 12.7338726,2.8994442 12.6855946,2.91393441 C12.6212202,2.93447843 12.5629438,2.97062396 12.5159703,3.01914251 C12.3298351,2.91033916 12.0912302,2.96246105 11.9675911,3.13893286 C11.8439519,3.31540467 11.8767045,3.55709863 12.0428654,3.69441159 C12.2090263,3.83172454 12.4529225,3.8186491 12.6034055,3.66436066 C12.714275,3.72867047 12.8488683,3.73755858 12.9672532,3.68838801 C13.0856382,3.63921744 13.1742165,3.53763615 13.2067082,3.41378203 C13.3424473,3.42366037 13.4742505,3.3656459 13.558521,3.25892825 C13.6427915,3.1522106 13.6685482,3.01069586 13.6272714,2.8811933 L13.6272714,2.87813746 C13.6566115,2.87274808 13.6852215,2.86395765 13.7125207,2.85194458 C13.8021635,2.81097691 13.8718296,2.73611788 13.9061844,2.64384515 C13.9405392,2.55157242 13.9367668,2.44944935 13.8956974,2.35995483 C13.8812729,2.32825586 13.8622723,2.29883985 13.8393017,2.2726452 C13.9476148,2.24921268 14.0395372,2.17818829 14.0894392,2.07937497 C14.1393413,1.98056165 14.141885,1.86452936 14.0963611,1.76363007 C14.2421664,1.74398167 14.3624431,1.63990488 14.4026615,1.49858478 C14.44288,1.35726468 14.3953906,1.20558022 14.2817237,1.11230026 C14.3622866,0.997851093 14.3704322,0.847544257 14.3027081,0.725082062 C14.468257,0.681912296 14.5827155,0.53121621 14.5797051,0.360387668 C14.5766947,0.189559127 14.4569975,0.042977582 14.29003,0.005650735 L14.2882813,0.00957966822 Z" id="Path" fill="#473E56" fill-rule="nonzero"></path>
                        <path d="M14.1016072,0.133995887 C14.1655341,0.142898814 14.2195821,0.185753612 14.2427526,0.245910495 C14.2659232,0.306067378 14.2545859,0.374042836 14.2130871,0.4234273 C14.1000549,0.567081072 14.0234189,0.735857466 13.9896902,0.915417049 C13.8812706,1.46284841 13.7085861,2.23335587 13.5428965,2.47520354 C13.3772068,2.7170512 12.3738882,3.32036072 12.1504913,3.2566247 C11.9270944,3.19288867 10.8201651,2.03428992 10.7078109,1.42312253 C10.5954567,0.81195514 11.9450186,0.137488272 12.4565144,0.0423207783 C12.8014462,-0.0222883456 13.6145933,0.0685136665 14.1016072,0.133995887 Z" id="Path" fill="#E8E3E3" fill-rule="nonzero"></path>
                    </g>
                </g>
            </g>
        </g>
    </g>
</svg>