<?xml version="1.0" encoding="UTF-8"?>
<svg width="20px" height="27px" viewBox="0 0 20 27" version="1.1" xmlns="http://www.w3.org/2000/svg" xmlns:xlink="http://www.w3.org/1999/xlink">
    <title>BB0AFEBB-BE5B-408B-8F2B-36E1FCC7F026@2x</title>
    <defs>
        <linearGradient x1="50%" y1="0%" x2="50%" y2="100%" id="linearGradient-1">
            <stop stop-color="#FFE695" offset="0%"></stop>
            <stop stop-color="#FFEBC1" offset="100%"></stop>
        </linearGradient>
    </defs>
    <g id="💈Goal-options-+-DV-states" stroke="none" stroke-width="1" fill="none" fill-rule="evenodd">
        <g id="Goal.DV.paused.ii" transform="translate(-306.000000, -546.000000)">
            <g id="Components-/-Blocks-/-Pause-/-State-#1" transform="translate(1.000000, 0.000000)">
                <g id="Success" transform="translate(-47.000000, 531.000000)">
                    <g id="Graphics-/-Flags-/-Icon-+-Flag-Copy-5" transform="translate(352.000000, 15.478912)">
                        <g id="Graphics-/-*Misc-/-Flag-/-Combo" fill="#33982A">
                            <rect id="Rectangle" x="18.9202526" y="4.76703979" width="1" height="20.9940511"></rect>
                            <path d="M19.821217,3.60106385 C19.821217,3.60106385 12.3518863,-2.78610401 9.17972373,1.45241053 C4.99266527,7.04629422 2.16272365,4.93067204 0.702646359,3.22737289 C0.702646359,3.22737289 5.39512778,11.1789343 0,16.5671758 C0,16.5671758 5.76338202,18.8940244 9.3138779,16.776325 C12.8643738,14.6586257 19.005378,15.3855128 19.821217,18.0235493 L19.821217,3.60106385 Z" id="Path"></path>
                        </g>
                        <g id="Component-/-*Artwork-/-Target-yellow" transform="translate(6.344291, 2.382948)" fill="url(#linearGradient-1)">
                            <path d="M5.33096678,-8.8817842e-16 C8.27517843,-8.8817842e-16 10.6619336,2.54629931 10.6619336,5.68731868 C10.6619336,8.82833806 8.27517843,11.3746374 5.33096678,11.3746374 C2.38675513,11.3746374 8.8817842e-16,8.82833806 8.8817842e-16,5.68731868 C8.8817842e-16,2.54629931 2.38675513,-8.8817842e-16 5.33096678,-8.8817842e-16 Z M5.33096678,1.03405794 C2.92206634,1.03405794 0.969266687,3.11739374 0.969266687,5.68731868 C0.969266687,8.25724363 2.92206634,10.3405794 5.33096678,10.3405794 C7.73986722,10.3405794 9.69266687,8.25724363 9.69266687,5.68731868 C9.69266687,3.11739374 7.73986722,1.03405794 5.33096678,1.03405794 Z M5.33096678,2.06811589 C7.20455601,2.06811589 8.72340018,3.68848817 8.72340018,5.68731868 C8.72340018,7.6861492 7.20455601,9.30652148 5.33096678,9.30652148 C3.45737754,9.30652148 1.93853337,7.6861492 1.93853337,5.68731868 C1.93853337,3.68848817 3.45737754,2.06811589 5.33096678,2.06811589 Z M5.33096678,3.10217383 C3.99268875,3.10217383 2.90780006,4.2595826 2.90780006,5.68731868 C2.90780006,7.11505476 3.99268875,8.27246354 5.33096678,8.27246354 C6.6692448,8.27246354 7.7541335,7.11505476 7.7541335,5.68731868 C7.7541335,4.2595826 6.6692448,3.10217383 5.33096678,3.10217383 Z M5.33096678,4.13623177 C6.13393359,4.13623177 6.78486681,4.83067704 6.78486681,5.68731868 C6.78486681,6.54396033 6.13393359,7.2384056 5.33096678,7.2384056 C4.52799996,7.2384056 3.87706675,6.54396033 3.87706675,5.68731868 C3.87706675,4.83067704 4.52799996,4.13623177 5.33096678,4.13623177 Z M5.33096678,5.17028971 C5.06331117,5.17028971 4.84633344,5.40177147 4.84633344,5.68731868 C4.84633344,5.9728659 5.06331117,6.20434766 5.33096678,6.20434766 C5.59862238,6.20434766 5.81560012,5.9728659 5.81560012,5.68731868 C5.81560012,5.40177147 5.59862238,5.17028971 5.33096678,5.17028971 Z" id="Combined-Shape"></path>
                        </g>
                    </g>
                </g>
            </g>
        </g>
    </g>
</svg>