<?xml version="1.0" encoding="UTF-8"?>
<svg width="22px" height="22px" viewBox="0 0 22 22" version="1.1" xmlns="http://www.w3.org/2000/svg" xmlns:xlink="http://www.w3.org/1999/xlink">
    <title>A6886166-3A43-499E-8E17-C2F632DE3425</title>
    <defs>
        <path d="M17,13 L17,8 C17,4.68629145 14.3137085,2 11,2 C7.68629154,2 5.00000005,4.68629145 5,8 L5,13 C5,13.7285742 4.80521143,14.4116532 4.46487122,15 L17.5351288,15 C17.1947886,14.4116532 17,13.7285742 17,13 Z M21,17 L1,17 C-0.333333333,17 -0.333333333,15 1,15 C2.1045695,15 3,14.1045694 3,13 L3,8 C3,3.58172193 6.58172205,0 11,0 C15.418278,0 19,3.58172193 19,8 L19,13 C19,14.1045694 19.8954305,15 21,15 C22.3333333,15 22.3333333,17 21,17 Z M13.595,20.5017718 C13.0583034,21.4269783 12.0696029,21.9964562 11,21.9964562 C9.93039709,21.9964562 8.94169664,21.4269783 8.405,20.5017718 C8.01827917,19.8351072 8.49928951,18.9999999 9.27,18.9999999 L12.73,18.9999999 C13.5007105,18.9999999 13.9817208,19.8351072 13.595,20.5017718 Z" id="path-1"></path>
    </defs>
    <g id="🪴-Overview" stroke="none" stroke-width="1" fill="none" fill-rule="evenodd">
        <g id="Overview.Get-started.i" transform="translate(-273.000000, -41.000000)">
            <g id="Screens-/-Overview-/-State-#1-(Income)" transform="translate(0.000000, 23.949646)">
                <g id="Topbar" transform="translate(0.000000, 0.050354)">
                    <g id="Group" transform="translate(224.000000, 6.000000)">
                        <g id="Action-Icon-2" transform="translate(38.000000, 0.000000)">
                            <g id="Icon-Placeholder" transform="translate(11.000000, 11.000000)">
                                <mask id="mask-2" fill="white">
                                    <use xlink:href="#path-1"></use>
                                </mask>
                                <use id="Shape" fill="#6F89A5" xlink:href="#path-1"></use>
                            </g>
                        </g>
                    </g>
                </g>
            </g>
        </g>
    </g>
</svg>