<?xml version="1.0" encoding="UTF-8"?>
<svg width="58px" height="49px" viewBox="0 0 58 49" version="1.1" xmlns="http://www.w3.org/2000/svg" xmlns:xlink="http://www.w3.org/1999/xlink">
    <title>EE627142-5DD2-4B0C-81D1-546470E4F915@1x</title>
    <g id="🪴-Overview" stroke="none" stroke-width="1" fill="none" fill-rule="evenodd">
        <g id="Overview.Get-started.i" transform="translate(-29.000000, -211.000000)">
            <g id="Screens-/-Overview-/-State-#1-(Income)" transform="translate(0.000000, 23.949646)">
                <g id="Get-started" transform="translate(15.000000, 163.050354)">
                    <g id="Grow" transform="translate(14.000000, 24.000000)">
                        <g id="Shape" transform="translate(2.000000, 0.073579)">
                            <g id="Shape/Circle">
                                <rect id="Shadow" x="0" y="0" width="48" height="48" rx="24"></rect>
                                <rect id="Fill" fill="#CDE0E7" opacity="0.3" x="0" y="0" width="48" height="48" rx="24"></rect>
                                <g id="Outline-Tint" stroke="#FFFFFF" stroke-opacity="0" stroke-width="1.3">
                                    <rect id="Outline" x="0.65" y="0.65" width="46.7" height="46.7" rx="23.35"></rect>
                                </g>
                            </g>
                            <text id="💚" font-family="AppleColorEmoji, Apple Color Emoji" font-size="18.2" font-weight="normal" letter-spacing="0.325"></text>
                        </g>
                        <path d="M12.8750323,29.0155674 C13.1840063,29.0567496 14.0572877,29.4101126 14.2052262,29.6701364 C14.0034194,29.73229 13.8560503,29.8692019 13.6811207,29.9750369 C13.4795416,30.096845 13.2836569,30.1278132 13.0690948,30.2156106 C12.5480643,30.4286933 12.0490138,30.8020497 11.5640852,31.0832623 C10.5155326,31.6911074 9.51754548,32.3593677 8.54301901,33.070114 C7.71631717,33.6730695 6.97446075,34.3817513 6.18955525,35.0012231 C5.65554162,35.4226073 4.2254693,36.6561179 4.84182284,37.3441543 C5.27197201,36.9965503 5.70713219,36.6554659 6.143659,36.3152509 C6.39158983,36.1221617 6.78461202,35.6316695 7.10429132,35.6148272 C6.72345499,36.072178 6.31437481,36.502907 5.90597795,36.9378738 C6.47780189,37.0060037 7.04837307,36.250598 7.44378687,35.9170112 C7.69615927,35.7040372 7.99158076,35.6254759 8.26866652,35.4354292 C8.51648346,35.265376 8.66635805,35.0446872 8.94458268,34.9111438 C9.51333168,34.6378634 10.0088517,34.2309309 10.507105,33.8781113 C10.7264503,33.7227272 10.9208545,33.5324632 11.1066033,33.3864239 C11.2256147,33.2928674 11.6919797,32.9014734 11.8011968,32.8761556 C11.8294407,32.9332022 11.8577984,32.9902488 11.8861561,33.0472954 C12.0135951,32.7853156 12.0921768,32.9330935 12.297514,32.7865109 C12.4087811,32.7070803 12.3518379,32.5871194 12.408895,32.5388743 C12.4953348,32.4658547 12.8069282,32.3152516 12.9250285,32.2438619 C13.1663539,32.0978226 13.0721698,32.0057874 13.3699829,32.1363969 C13.3063203,31.9649311 13.3647441,31.9187506 13.5452541,31.9979638 L13.5197436,31.626346 C14.3352845,31.626346 14.9712265,31.3082976 15.6520398,30.8701796 C15.908626,30.7051248 15.9024762,30.5826648 16.1920894,30.7270742 C16.3510749,30.8063961 16.4806777,31.0306708 16.5807839,31.1611717 C16.8101513,31.4597699 16.9248349,31.6695927 17,32.0298013 C16.9019438,31.9359189 16.8271203,31.9299426 16.7757576,32.0120897 C16.8518337,32.1216191 16.9990889,32.2541846 16.989978,32.3864241 C16.978931,32.5477844 16.9022854,32.3677345 16.859578,32.4697664 C16.8143651,32.577992 16.6734875,32.6867608 16.6551518,32.8032446 C16.618822,33.0316483 16.8157317,33.0298011 16.6575434,33.2874344 C16.5223602,33.1707334 16.4880803,33.1611713 16.331942,33.2511419 C16.3805715,33.3331804 16.429201,33.4151102 16.4778306,33.4972573 C16.1537097,33.4972573 16.5148437,33.842688 16.4227095,34.0736996 C16.2779598,34.436516 15.7577265,34.4766116 15.8020283,34.9475449 L16.0358372,34.5968985 C16.0192098,34.8342124 15.92867,34.9153815 15.8435969,35.1108612 C15.7943979,35.2236505 15.7612569,35.4381457 15.668895,35.529203 C15.5920217,35.41185 15.5151483,35.2943883 15.4383888,35.1770353 C15.4938515,35.6594866 15.4172059,36.005678 15.1197345,36.4164135 C15.0286253,36.5424593 14.8499375,36.6338426 14.7827444,36.7530428 C14.7030239,36.8944097 14.812241,37.0893461 14.7271679,37.209633 C14.6586082,37.3066665 14.5385719,37.314816 14.4388073,37.365017 C14.3525953,37.3068838 14.2824412,37.3207923 14.2281174,37.4068512 C14.1899654,37.4532491 14.1676437,37.505732 14.1610382,37.5641912 C14.1829044,37.5907043 14.2046568,37.6172174 14.226523,37.6438391 C14.1461191,37.8198686 14.0622987,37.836711 13.9749478,37.6945834 C13.8151651,37.7759699 13.7822519,37.8154136 13.6861317,38.0041563 C13.2775071,38.0711997 12.8170641,38.4271705 12.4333806,38.6209116 C11.9442382,38.8681136 11.5127224,39.011871 11.0093443,39.1706236 C10.8136873,39.2323426 10.6901205,39.3728402 10.5170131,39.4458598 C10.3291004,39.5252905 10.1196632,39.4782406 9.9708136,39.5405029 C9.78483701,39.6183036 9.72071893,39.7873788 9.47643246,39.8209549 C9.22690722,39.8550742 8.96417115,39.7779254 8.7483563,39.6612244 C8.94446879,40.0013308 8.97145989,39.9820979 8.61431194,40.1699714 C8.61362862,40.1681242 8.50406984,39.7091435 8.40316643,39.8379058 C8.32754582,39.9342874 8.49803386,40.1447622 8.40305255,40.2655924 C8.34405936,40.3404593 8.12232242,40.384684 8.0441963,40.4199985 C7.99294739,40.4126096 7.94169848,40.4053294 7.89056346,40.3979405 L7.6580073,40.7254423 C7.45073394,40.7489129 7.24368835,40.7722749 7.03652887,40.7956368 C7.13094075,40.5255076 7.14255717,40.5358303 6.87469621,40.4101104 C6.91523979,40.5430019 6.95589726,40.6758933 6.99644084,40.8087847 C6.64669551,40.85377 6.26164538,40.9078828 5.95392415,40.8871287 C5.89584206,40.8831083 5.8736342,40.8063942 5.78047507,40.8140004 C5.70417114,40.820194 5.52070005,40.8948436 5.64927787,40.9462399 C5.03827699,41.0006786 4.45381166,40.9489564 3.84189969,40.9561279 C3.57244432,40.9592791 3.29137253,41.0182816 3.02385323,40.9942677 C2.74300921,40.9691672 2.46239296,40.8722423 2.1709575,40.8519228 C1.56257602,40.8095453 0.885976539,40.8094367 0.290122563,40.692301 C-0.0575728094,40.6238451 -0.0872971763,40.6283001 0.171680641,40.3767518 C0.308230511,40.244295 0.45958562,40.1283546 0.608207455,40.0091543 C1.44868955,39.3354611 2.28917165,38.603526 2.95199087,37.763474 C3.63041253,36.9036458 3.95453341,35.8522498 4.44367576,34.8929975 C5.35556468,33.1041247 5.91201394,30.6667677 8.07540119,29.9222281 C8.52639159,29.7670613 9.02156993,29.7429387 9.4845184,29.5908145 C10.0323123,29.4106559 10.5916087,29.3213372 11.1593327,29.2081132 C11.6490445,29.110645 12.3771207,28.949176 12.8750323,29.0155674 Z M6.99100794,39.95 C6.96056882,39.9981613 6.89253608,40.0445828 7.05,40.05 C7.02957717,40.0154409 7.01279663,39.9870502 6.99100794,39.95 Z M32.1280494,27.0456259 L32.1528642,27.0479446 C32.5995062,27.0851709 33.0351599,27.1583673 33.5022249,27.2168331 C33.6122205,27.230536 33.8507478,27.1703574 33.9422073,27.1912543 C34.1459933,27.23773 34.3101542,27.3860641 34.5214879,27.4285431 C34.9124107,27.5069923 35.3204266,27.5836145 35.7140133,27.7120793 C36.677002,28.0263329 37.6180138,28.4553483 38.5184016,28.9239881 C40.4340565,29.9209894 42.1773369,31.2106623 43.9866591,32.3941375 C44.965409,33.0342921 45.8091896,33.6360785 46.5769389,34.5387581 C46.8646368,34.8768776 47.1507807,35.1058305 47.3116118,35.496021 C47.5200596,36.0014302 47.7571439,36.4854858 48,36.9737663 C47.552692,37.0758531 47.2777585,36.8537516 46.8608629,36.7563467 C46.4639464,36.6635095 46.0231871,36.6350759 45.618168,36.5607376 C44.7499686,36.4014412 43.8788834,36.2682945 43.0052453,36.1535326 C42.1010837,36.0348882 41.2167901,35.7907479 40.3140714,35.6617121 C39.5774006,35.5565422 38.816533,35.4307038 38.1342495,35.2027786 C37.7984909,35.0906431 37.430655,35.0527317 37.085351,34.9791927 C36.6366,34.8835006 36.2107139,34.6802407 35.7641828,34.573358 C35.0385005,34.3995593 34.3438966,34.2327263 33.6080027,34.0469376 C33.2823447,33.9646059 32.828266,33.8861567 32.5274708,33.7422761 C32.3094775,33.6380197 32.1109082,33.3584802 31.8966888,33.1411748 C31.5898998,32.8301186 31.320738,32.4587696 31.0462485,32.1179095 C30.8041694,31.8170163 30.3084678,31.4049011 30.5900609,30.9757714 C30.2695087,31.0155099 30.3880508,31.06701 30.2525265,30.7827887 C30.160956,30.5904911 30.1495236,30.3026157 30.1053477,30.0963868 C30.2959254,30.0830264 30.22167,29.9938433 30.202024,29.8195879 C30.1188891,29.7940091 30.0811509,29.8448241 30.0886985,29.9720328 C29.7678133,28.9276422 30.364742,28.1099207 31.1223908,27.4847251 C31.2954313,27.3418722 31.5420612,27.1059536 31.7588335,27.0426919 C32.0484219,26.9581537 31.893212,27.0210894 32.1280494,27.0456259 Z M3.95,37.05 C3.98325688,37.0294095 4.01146789,37.0120237 4.05,36.9883086 C3.96559633,36.9296616 3.96559633,36.9296616 3.95,37.05 Z M41.5994752,26.0001408 C42.4379969,25.9935293 43.2862498,26.2211987 44.1135096,26.3917108 C44.6023648,26.4924825 44.9911748,26.7262302 45.4547727,26.8744553 C45.6074101,26.9232949 45.7657331,26.919456 45.9197919,26.9577386 C46.179363,27.0222538 46.3527749,27.1449927 46.5812936,27.2885257 C46.1084019,27.5661011 48.407585,29.1375 48.5913841,29.3271001 C48.9666359,29.714298 49.2310179,30.1850992 49.4433545,30.6723224 C49.616657,31.0696508 50.04964,31.7716404 49.6772309,32.1545729 C49.7466613,32.1278071 49.8160916,32.1010413 49.8854126,32.0742755 C49.9290389,32.1133045 49.8523922,32.5865583 49.8401462,32.6629102 L50,32.6801854 C49.7638275,33.0559732 49.7833992,33.1130238 49.3313913,33.0200366 C49.3296418,33.2808701 49.4094594,33.537438 49.3459334,33.7952856 C49.3223161,33.8908321 49.2473095,33.9701699 49.237797,34.0567589 C49.2295965,34.1309781 49.3110542,34.1925074 49.3015417,34.295092 C49.2493869,34.858987 48.9164493,35.4676695 48.7249965,36 C48.0879868,34.647633 47.6226394,33.1597307 46.6950063,31.9711578 C46.2450758,31.3946796 45.7184986,30.9163072 45.2009965,30.4005054 C44.6880867,29.8893955 44.2359694,29.4120895 43.616126,29.0270243 C43.1213664,28.7196973 42.5207666,28.3934955 41.9657612,28.2203175 C41.6632199,28.125944 41.350182,28.1206121 41.0415176,28.0004325 C40.7475047,27.8860113 40.469346,27.7944104 40.1625404,27.7182717 C39.380219,27.5240863 38.6094875,27.2819142 37.8305556,27.0846363 C37.5954765,27.0250264 37.3787663,26.9067662 37.1360335,26.8433174 C36.7616563,26.7455315 36.340482,26.767392 36,26.5777919 C36.4370285,26.3572672 36.8859749,26.3973626 37.3550398,26.3344469 C37.8467378,26.2684388 38.3313288,26.1918736 38.8236829,26.1341831 C39.7529561,26.0254137 40.6673591,26.0076053 41.5994752,26.0001408 Z M40.95,34.015051 C41.0037856,34.0654571 40.9816778,34.0671173 41.05,33.9815798 C41.0215324,33.9303104 40.9882193,33.9414674 40.95,34.015051 Z M41.9504846,34.042959 L42.0403846,34.05 C42.0741846,33.918044 42.0073846,33.9176895 41.9504846,34.042959 Z M15.05,32 C14.9480026,32.3015714 14.911421,32.5402875 15.000312,33 C15.0163892,32.6770311 15.0296122,32.4098964 15.05,32 Z M49.95,31.95 C49.9638198,31.9777246 49.977564,32.0052212 49.9999928,32.05 C50.0733962,31.9557 50.0733962,31.9557 49.95,31.95 Z M34.9678876,30.95 C34.9233711,30.9865317 34.9718404,31.0116595 35.0060043,31.05 C35.1082133,31.0342312 35.0053454,30.9850374 34.9678876,30.95 Z M43.0064463,30 C43.306294,30.1459223 43.8956498,30.5884686 44,31 C43.7722907,30.9000407 43.6276957,30.6734798 43.4182796,30.5140329 C43.2755139,30.4053285 42.9502945,30.2803539 43.0064463,30 Z M35.0038476,30.5081993 C35.347197,30.6765981 35.6309223,31.170009 36,30.9399622 C35.9609993,30.6505337 35.8140829,30.4347656 35.6807453,30.4050748 C35.5793637,30.3824101 35.4825766,30.6312687 35.3713938,30.5238379 C35.2688893,30.4247931 35.3302491,30.0281606 35.1846599,30.0011895 C35.0624508,29.9787515 34.980978,30.278379 35.0038476,30.5081993 Z M8.95,31.05 C8.97808728,31.027941 9.00622098,31.0058133 9.05,30.9713847 C8.96917363,30.9109114 8.96429898,30.9920006 8.95,31.05 Z M43,30.0491979 C42.5954403,30.0557407 42.2532409,30.0221826 42,29.9512146 C42.4054537,29.9429307 42.7358069,29.9771747 43,30.0491979 Z M31,28.05 C31.3485064,28.0239081 31.6520626,28.001172 32,27.9751221 C31.2654339,27.9325025 31.2199147,27.9359422 31,28.05 Z M31.95,27.95 C31.9696746,27.9918617 31.9833119,28.0209043 31.9970202,28.05 C32.079341,27.9847872 32.0672663,27.9527128 31.95,27.95 Z M35.8138878,0 C36.1169231,0.678252195 36.3338994,1.36627553 36.5561467,2.07777208 L36.5558808,2.07777208 L36.6201088,2.20644083 C37.2183415,3.41857897 37.628824,4.62352893 38.0250664,5.92490749 C38.1933117,6.47759486 38.3030369,7.04813984 38.4690232,7.61666321 C38.5630427,7.93877404 38.670724,8.26088487 38.7466711,8.58827436 C38.8153031,8.88410418 38.766895,9.12422725 38.7755009,9.42544804 C38.7832462,9.70117401 38.8892063,9.87054052 38.9488022,10.119087 C39.0278689,10.4498458 38.9921544,10.8650633 38.9907559,11.2067164 C38.9874212,11.944494 38.8836125,12.68317 38.882214,13.4183644 C38.8808156,14.0834761 38.8644644,14.7346611 38.8303635,15.4001097 C38.8033625,15.9280885 38.7477468,16.8606151 38.3100292,17.1968772 C38.4188939,17.2888607 38.5668078,17.3420966 38.524101,17.5074199 C38.4390102,17.8359325 38.2208506,17.4988842 38.1925587,17.535161 C38.0470114,17.7217112 38.3328349,17.6820651 38.3273486,17.8251505 C38.3215396,17.9746378 38.2026706,18.1064921 38.1237115,18.2382341 C37.6339282,19.0555286 36.9748238,19.6594302 36.3053923,20.3185894 C36.1682358,20.4535884 36.0340913,20.6216071 35.869611,20.7215648 C35.7868868,20.7717683 35.5779786,20.8181532 35.5464595,20.8452204 C35.3827322,20.9861719 35.4523325,21.1556507 35.2349259,21.25763 C35.0674336,21.3362484 34.7164204,21.2059665 34.6028225,21.2705459 C34.5568885,21.3428748 34.5110621,21.4153161 34.4651281,21.487645 C34.4367286,21.6367954 34.385416,21.6706013 34.3111901,21.5890628 C34.2411596,21.642074 33.9563043,21.7916736 33.8230204,21.9035364 C33.9050992,21.9129706 33.9872855,21.9225171 34.0693643,21.9320636 L33.7919316,21.9767638 C33.705765,22.0201162 33.6500418,21.9883319 33.6249771,21.8811863 C33.4778162,21.8884866 33.4999764,21.9279081 33.4962113,22.0666134 C33.2154438,22.0651533 33.2258785,21.9794593 33.0012645,21.9353207 C32.9071374,21.9169015 32.7666461,21.9218432 32.6733797,21.8956745 C32.7027473,21.8291858 32.7322225,21.7626971 32.7615901,21.6962084 C32.567312,21.8437864 32.3811018,22.0296628 32.3458176,22.2905635 C32.080971,22.3088704 32.2903095,21.8387323 32.008036,22.1387177 C31.9369298,22.214416 31.9785608,22.347618 31.9320889,22.4247764 C31.9945893,22.5575292 31.961349,22.6239056 31.8323681,22.6237933 C31.7182323,22.6615301 31.6042041,22.6991546 31.490176,22.7368914 C31.5594535,22.6498496 31.6289461,22.5626955 31.6983312,22.4756537 C31.5095392,22.4104004 31.2532985,22.5420301 31.3781917,22.8122528 C31.227696,22.8264041 31.0625703,22.8678472 30.9132579,22.8561668 C30.7500685,22.8432509 30.567731,22.9994769 30.7122026,22.7456518 L30.4634383,22.7809739 L30.2155913,22.8161837 L30.212979,22.8196764 C30.1640624,22.8838482 30.1300976,22.9443073 30.2408144,22.9758914 C30.0464286,22.9975676 29.812133,23.011382 29.680893,22.9806085 C29.6043005,22.9625263 29.5916068,22.703984 29.4559563,22.874249 C29.5288913,22.9305173 29.6018263,22.9866733 29.6748689,23.0429417 C28.3709674,23.6022554 26.9688511,23.7627493 25.6204141,24.115409 C25.6245019,23.6693057 25.8439523,23.2910389 26.0262898,22.9038994 C26.2433737,22.4427463 26.3953754,21.95812 26.5621147,21.4757399 C26.8837602,20.5463581 27.1945408,19.6058574 27.5905198,18.7096076 C27.789854,18.2582256 28.0690079,17.8525547 28.3079292,17.4244213 C28.5441611,17.0010051 28.6911069,16.5508585 28.8694642,16.0995889 C29.2237045,15.2027776 29.7295163,14.3932326 30.1215151,13.5211299 C30.5140517,12.6481287 31.0732201,11.8812623 31.55074,11.0604862 C32.0412763,10.2175846 32.4567261,9.32627654 32.9332779,8.47394074 C33.4559787,7.53883099 34.0108442,6.62281428 34.5303178,5.68624448 C34.7598802,5.27226243 34.9415723,4.85064316 35.0719517,4.39050088 C35.1146584,4.23955355 35.1882389,4.07995819 35.1496199,3.91845353 C35.0540944,3.51738736 34.8866021,3.75279332 34.682965,3.92777542 C34.6084164,3.7320156 34.4643751,2.24972176 34.0730218,2.75052099 C33.9958914,2.84913093 34.05581,3.00423381 34.0011625,3.10183294 C33.9443636,3.20313837 33.8373277,3.22009748 33.7619185,3.32162753 C33.6298179,3.49919281 33.5673176,3.72235677 33.422846,3.89688962 C33.070542,4.32243981 32.6617617,4.71710419 32.3371041,5.14186819 C32.2265183,5.28675068 32.082477,5.40602603 31.9627475,5.57090005 C31.7917052,5.80675526 31.6689635,6.09629561 31.4235878,6.24701832 C31.4247711,6.07540557 31.4687688,5.97320165 31.2392064,5.98106349 C31.4945865,6.33406012 31.3634541,6.32103193 31.1465854,6.58002341 C30.9655388,6.79611171 30.7682485,7.15753174 30.5796717,7.42584511 C30.162178,8.02008793 29.7854547,8.58411882 29.4078708,9.20127328 C28.5354477,10.6275234 27.7195007,12.0653417 26.9619664,13.5620115 C26.226377,15.0154411 25.5075692,16.4852683 24.9259179,18.0143963 C24.3321108,19.5757578 23.9611965,21.2147268 23.3913783,22.7792331 C23.7400249,22.6871372 23.6783851,22.3554799 23.7971465,22.0684104 C23.8686831,21.8955622 24.0160591,21.7609001 24.0792049,21.5899613 C24.1383705,21.429692 24.0787746,21.2246103 24.1284737,21.0624318 C24.128151,21.0634426 24.2939221,20.7786193 24.3100582,20.7411071 C24.3700843,20.6011664 24.4013883,20.4391001 24.454207,20.2937684 C24.5939453,19.9088752 24.7733783,19.5392564 24.9973469,19.1991756 L25.0818461,19.2987964 L25.1663453,19.3984171 C25.1128596,18.937601 24.8697429,18.8640366 25.2762641,18.4654413 C25.2453905,18.6674906 25.2146244,18.8695399 25.1838583,19.0714769 C25.4147115,18.9794933 25.3202618,18.8069821 25.3700684,18.6214427 C25.6960169,18.6783848 25.2388285,18.9574802 25.6555692,18.9582664 C25.621791,19.1828904 25.64223,19.3039627 25.4828057,19.379661 C25.4245008,19.4074021 25.2288241,19.3765163 25.1663237,19.3984171 C25.0876013,19.6260735 25.1948523,19.8294706 25.4429174,19.858784 C25.3429814,20.1808948 25.3749308,20.2834357 25.0517792,20.3183647 C25.0122996,20.4258473 25.0724334,20.4831264 25.2321804,20.4902021 L25.1614507,20.6486603 L25.0917459,20.8046757 L25.0920118,20.8022049 L25.0895944,20.804788 L25.0907209,20.8070343 L25.0917459,20.804788 L25.0864432,20.857197 C25.0332505,21.297989 24.7767217,21.7583439 24.6142768,22.168705 C24.4306484,22.6322167 24.3211383,23.1112274 24.1708577,23.5866441 C24.0554311,23.9516581 24.0348845,24.5007515 23.8590014,24.8208407 C23.5794172,25.3298387 23.3283401,24.6218238 23.2012955,24.3347543 C22.800906,23.4296319 22.4235373,22.5165353 22.0471367,21.6001816 C21.8327422,21.0781554 21.5873665,20.5717406 21.3692069,20.0518484 C21.2897678,19.8625422 21.2012544,19.6669198 21.16467,19.4607414 L21.1568055,19.4100976 C21.16755,19.4393425 21.2669542,18.8071606 21.1040376,19.169076 C21.0811244,19.074397 21.0583187,18.979718 21.0354055,18.8851512 C21.0979059,18.8906545 21.1605138,18.8962701 21.2230142,18.9018857 C21.0600399,18.5557401 21.0994119,18.1865706 21.0692913,17.8158287 C21.0582112,17.6810542 20.8746904,17.0916408 21.1544897,17.2366356 C21.1544897,16.720225 21.0895151,16.1858445 21.2549636,15.691784 C21.4540826,15.096755 21.8700703,14.568664 22.2118321,14.0565212 C22.3950302,14.470391 22.5700527,13.7709118 22.6907505,13.6392821 C22.668913,13.5469617 22.6924716,13.506417 22.7612113,13.5175359 C22.8180102,13.5124819 22.874594,13.5075402 22.9312854,13.5024861 C23.005834,13.378606 23.0246594,12.9112757 23.0246594,12.7824539 C23.489378,13.00281 24.0153061,11.9666195 24.2502472,11.6815716 C24.5647928,11.3002723 25.7221788,10.9234656 25.6080431,10.3079958 C25.8179195,10.5065634 25.7621963,10.3065357 25.8490083,10.1433464 C25.9390475,9.97364294 26.0924477,9.87031589 26.2427282,9.73385681 C26.2895228,9.69140287 26.3987102,9.61413221 26.4380822,9.58672808 C26.4982159,9.54494802 26.5660949,9.59560073 26.6398905,9.52226099 C26.8284673,9.3352615 26.9463682,8.99113752 27.0706159,8.75966248 C27.3010388,8.91712391 27.9795065,8.29075986 28.1663621,8.06928059 C28.278454,7.93641549 28.3045944,7.74952831 28.4112,7.63070221 C28.5734212,7.44987988 28.7262835,7.48851521 28.7600617,7.21503548 C29.0463154,7.46099877 28.9988754,6.8942724 29.1788463,6.71726868 C29.2526419,6.73085843 29.3266526,6.74444818 29.4004482,6.75815025 C29.4682197,6.65268928 29.5353457,6.54677906 29.6018263,6.4405319 C29.8824862,6.00386283 30.1973546,5.7257783 30.556113,5.36873844 C30.7016603,5.22385595 30.806222,5.03685647 30.948327,4.89365866 C31.0998984,4.74102665 31.2885827,4.67813192 31.4517721,4.53920197 C31.5944149,4.4177927 31.771051,4.22562686 31.8731385,4.06614381 C31.9511295,3.94406066 31.9619944,3.73852969 32.0344991,3.64991552 C32.0674167,3.73235253 32.1004419,3.81490186 32.1332519,3.89733887 C32.5604272,3.40664772 32.8324813,2.93280337 33.2756851,2.46142989 C33.3571185,2.70874092 33.315595,2.85901439 33.5552693,2.83700123 C33.6850033,2.82520847 33.7973103,2.66055908 33.8963857,2.58429922 C33.929626,2.55869209 34.2239478,2.36910942 34.2327688,2.33339421 C34.2810694,2.13752207 33.9688904,1.91491968 34.0284862,1.69287884 C34.1003455,1.42501471 34.534298,1.16905566 34.7227673,0.9973306 C35.0869044,0.665560939 35.4499658,0.332106597 35.8138878,0 Z M7.09650961,3 C7.13728938,2.99436093 7.51771126,4.10395797 7.55871822,4.21159566 C7.84304069,4.95653589 8.00672774,5.73491482 8.30002404,6.48772298 C8.88957004,8.00153505 9.64337106,9.48474961 10.4494247,10.8883014 C11.1855053,12.1699001 11.5604747,13.5883135 12.427982,14.8272944 C13.0082134,15.6559406 13.6506936,16.439237 14.2570513,17.2494155 C14.7373211,17.8913077 15.1393256,18.5349483 15.7902117,19.0347806 C16.4495036,19.5412787 17.0045174,20.0968422 17.4695658,20.770971 C17.6845968,21.0827378 17.9276851,21.3790966 18.21746,21.6299962 C18.5364283,21.9059203 18.9132152,22.0345391 19,22.4759083 C18.9232113,22.47263 18.8465363,22.4694609 18.7698612,22.4661826 C18.8196148,22.6441946 18.8693684,22.8220973 18.9192356,23 C18.2702806,22.7623229 17.6766453,22.6849549 17.0003145,22.5813604 C17.1525287,22.5680286 17.3047429,22.5548062 17.4568435,22.5414744 C17.1896735,22.3613861 16.8199293,22.3343948 16.5106164,22.2276313 C16.1965327,22.1192287 15.9224336,21.9560783 15.6160741,21.8354367 C14.882947,21.5467273 14.1417547,21.2816217 13.4091955,20.9781599 C13.1867811,20.8859302 12.9074567,20.8335866 12.734455,20.6555747 C12.7029899,20.6173278 12.6716383,20.5789716 12.6402867,20.5406154 C12.6276779,20.3805249 12.5611126,20.3481789 12.4407044,20.4434683 L12.3346088,20.4843378 C12.2385094,20.42205 12.1527469,20.348616 12.0773214,20.264145 C11.608638,19.7640942 11.334766,19.0552153 11.0272707,18.4587823 C10.2193995,16.8916432 9.39358076,15.2614512 8.86787384,13.5802271 C8.39873608,12.0800746 8.23902477,10.5366485 7.97083245,9.00349441 C7.670607,7.28894078 7.48465579,5.53373616 7.12899711,3.83076587 C7.09730476,3.67930817 6.876367,3.03075012 7.09650961,3 Z M57.7049563,10 C57.8767036,10.7124284 57.939979,11.4184678 57.9293577,12.1527532 C57.9249511,12.4660379 58.0025763,12.8090258 58,13.0784842 C57.9964748,13.4238259 57.9031437,13.8424728 57.8883418,14.2107925 C57.8598679,14.9216516 57.7690226,15.6039285 57.6996457,16.3021217 C57.6765954,16.5343671 57.682245,16.6297536 57.6903804,16.876122 C57.6982898,17.1152047 57.6843918,17.4124609 57.5003284,17.5767812 L57.5003284,17.1102729 C57.3337787,17.435663 57.1233882,17.7182357 56.7421544,17.7943431 C57.00486,18.0289423 56.842039,18.1814935 56.6415918,18.3715939 C56.7300643,18.3959169 56.8186497,18.4201278 56.9071222,18.4443387 C56.7151494,18.6121338 56.5231765,18.7798167 56.3312037,18.9476118 C56.3066845,18.9130888 56.2787756,18.8814801 56.2475899,18.8527857 C56.1403608,18.9063636 56.1362931,18.9674513 56.2354998,19.0359368 C56.0410411,19.1976791 55.839012,19.419052 55.5980008,19.5102912 C55.582069,19.5163439 54.9958683,19.5118604 55.4173272,19.6338117 C55.2285181,19.7742574 55.039709,19.9148151 54.8509,20.0552608 C54.8481882,19.9315162 54.9750778,19.849356 54.7870597,19.7784046 C54.5894373,20.1447067 54.5477433,20.2175636 54.173402,20.4038531 C53.8466301,20.5662679 53.5195192,20.727786 53.1924084,20.8896404 C53.1553471,20.68934 53.0385137,20.4838836 52.8491397,20.3899542 C52.9136579,20.5295032 53.0145595,20.6903488 53.0067631,20.8525395 C52.9933171,21.1274902 52.9007769,21.102943 52.6471106,21.2255668 C52.2483631,21.4182453 51.8388813,21.6426445 51.4130157,21.7696397 C50.6019616,22.0115246 49.7712469,22.1389681 48.9464078,22.3102379 C48.1521894,22.4753428 47.3611348,22.7070278 46.5629617,22.8400757 C45.773489,22.9715543 44.8430027,22.9575434 44.0439256,22.91226 C43.1752458,22.8629415 42.2878093,22.852069 41.4177735,22.8748228 C40.9325873,22.8874887 40.4309043,22.9010513 39.960972,22.973684 C39.5174797,23.0422816 39.0875465,22.9539566 38.6362578,22.9637082 C38.2232733,22.9726752 38.104858,22.8573371 37.752324,22.6969399 C37.3878129,22.5309382 36.8541533,22.469178 36.4547278,22.4445187 C36.3173299,22.4360001 36.1714577,22.5457338 36.058579,22.4216529 C35.8788093,22.2240426 36.1562038,22.1232759 36.3080646,21.9805884 C36.7412747,21.5738228 36.9879354,21.3310412 37.5533457,21.1564088 C37.4562859,21.1338792 37.3590001,21.1113496 37.2618272,21.08882 C39.3327384,20.5357801 41.2147275,19.6090403 43.1925335,18.8175902 C43.9868648,18.49971 44.7357736,18.2043593 45.5230995,17.8733648 C46.4285016,17.4926035 47.3412483,17.1084795 48.2074423,16.6447733 C49.9036731,15.7366401 51.4944827,14.7623753 53.0840494,13.681291 C54.7133891,12.5731936 56.043188,11.0859041 57.7049563,10 Z M37.9823774,22.95 C37.9282822,22.9791619 37.9419496,23.0124575 38.0235518,23.05 C38.0693777,23.0236127 38.0556529,22.9902605 37.9823774,22.95 Z M29.1420735,22 L29,23 L30,23 L29.9982961,22.9557221 C29.9608099,22.5613474 29.5060603,22.2937303 29.1420735,22 Z M15,16 C15.8974396,16.5965007 16.5101863,17.5891565 17.1568776,18.3987472 C17.8287948,19.2403067 18.5598826,20.0320769 19,21 C18.7751751,20.9390863 18.6900811,20.6535263 18.5204743,20.5062102 C18.3437763,20.3527379 18.2633323,20.2957123 18.1390625,20.0993628 C17.8287948,19.608921 17.5098085,19.1878173 17.1151443,18.7528891 C16.3093086,17.8645642 15.5342788,17.0671779 15,16 Z M44.05,21 C43.922807,21 43.9600877,21.4268225 43.95,22 L44.05,21 Z M23.9910551,20 C23.9075283,20.3847877 23.9644421,21.3797052 24.0460851,20.8461187 L24.05,20.818973 L23.9910551,20 Z M25.0197331,19.95 L24.95,20.0192728 C24.9854635,20.0717159 25.0188202,20.0570293 25.05,19.975213 C25.0403792,19.9663885 25.0302669,19.9580051 25.0197331,19.95 Z M9,5 C9.74181403,5.47927596 10.4556968,6.00172897 11.1612876,6.53208153 C11.351569,6.67503108 11.5396684,6.82079417 11.7283132,6.96579976 C11.7911585,7.01417103 11.8538946,7.06265052 11.9167399,7.11113 C12.057378,7.16491193 12.1376802,7.26208732 12.1574285,7.40243975 C12.4030269,7.56421839 12.6864852,7.69364129 12.9635062,7.89794769 C12.873057,7.96493162 12.7824987,8.03180733 12.6919405,8.09868305 C12.9470311,8.25743171 13.3035906,8.27474581 13.3611988,8.632282 C13.4294994,8.53727087 13.497909,8.44247617 13.5663187,8.34757325 C14.4564083,8.96038422 15.4624779,9.34205194 16.374716,9.91547333 C17.183194,10.4236422 17.963959,11.1068999 18.6511108,11.7565033 C18.9812666,12.0686982 19.3765589,12.3099053 19.7348641,12.5885541 C19.9158715,12.7294476 20.0167949,12.7441646 19.9977013,12.9350526 C19.9790441,13.1202052 19.7074784,13.398313 19.6063368,13.5525167 C19.1298694,14.2789515 18.5113455,15.1117597 18.303498,15.9665353 C18.0827758,16.8749845 18.6375816,18.0063528 18.8860167,18.8793082 C18.9655553,19.1583898 19.1120851,19.4766446 19.1414347,19.7643834 C19.1666383,20.0124079 19.2754173,20.0933513 18.9886858,19.8664283 C18.6087775,19.5659205 18.3075349,19.0275601 18.0145844,18.6384257 C17.399661,17.8218494 16.8210701,17.0142548 16.1491932,16.2379338 C15.9801875,16.0426091 15.6655248,15.7920957 15.5617646,15.5579225 C15.5188858,15.4610717 15.5503085,15.2973453 15.50983,15.2265739 C15.4272365,15.0821093 15.3248948,15.12204 15.243065,15.0091737 C15.1478152,14.8780194 15.1024269,14.6755526 15.0435095,14.5273006 C15.0047768,14.6472008 14.966044,14.7672091 14.9273113,14.8872175 C13.6133435,13.4629162 12.6688099,11.7602908 11.7629,10.0679456 C11.3103268,9.22258464 10.8579719,8.38057826 10.4201282,7.52742592 C10.1855495,7.07022544 9.95915387,6.60480075 9.69958988,6.16091048 C9.50265293,5.82415122 9.01091063,5.38848515 9,5 Z M30.9718677,19.05 L31.05,19.039676 C30.9801171,18.9129071 30.914596,18.9243355 30.9718677,19.05 Z M54,11.0178817 C53.8228466,11.2670547 53.6781875,11.4475889 53.4473807,11.6268124 C53.26375,11.7693331 53.0898353,11.8767003 52.95975,12.0884557 C52.7645682,12.5448558 52.121591,12.855756 51.7456932,13.1093381 C51.2255683,13.4602776 50.687091,13.7991815 50.1779774,14.1688298 C49.0606479,14.9798635 47.8867502,15.5934416 46.6738809,16.2207236 C45.5998411,16.7761494 44.5380003,17.3725678 43.4709776,17.8393352 C42.9089662,18.0851716 42.3565628,18.3729539 41.8034037,18.6464365 C41.4759776,18.808381 41.149739,18.9735431 40.8225288,19.1363218 C40.5625742,19.2657344 40.1136992,19.6432476 40.0113583,19.2846816 C39.9339549,19.3721484 39.8774947,19.4670033 40.0289549,19.4951261 C39.7918868,19.6167931 39.5548186,19.7385792 39.3178584,19.8602462 C39.0957959,19.9742867 39.0270288,20.1057251 39.000472,19.863702 C38.9864379,19.7358385 39.2895743,19.3696459 39.3483015,19.243689 C39.4346652,19.0585074 39.5022447,18.8630776 39.5706879,18.6693161 C39.8842958,17.7813021 40.0720288,16.8602795 40.3610231,15.9641624 C40.4357276,16.0071808 40.5105401,16.05008 40.5851367,16.0930984 C40.7015117,15.7645618 40.7374606,16.0605665 40.9544492,15.956655 C41.0314208,15.9199524 41.040381,15.7219009 41.1154094,15.67924 C41.1409947,15.6648211 41.2480856,15.7761208 41.2958015,15.7664685 C41.4795401,15.7297658 41.7266481,15.6938973 41.8923583,15.5964207 C41.9612333,15.5560239 42.0765287,15.3808521 42.1330969,15.3665523 C42.2128753,15.3464135 42.3220174,15.4726088 42.4229549,15.450325 C42.5814321,15.4151715 42.6355174,15.1950746 42.7880571,15.1327516 C42.9025969,15.0859199 43.0838526,15.1108253 43.1987162,15.0904482 C43.4830685,15.0400416 43.8732162,15.0940231 43.9909946,14.7206807 C44.4100741,14.9492382 44.8303412,14.6395296 45.2127161,14.4293234 C45.4068184,14.322552 45.5806252,14.3214795 45.7825002,14.2348469 C46.0016479,14.1409453 46.1555911,13.9931813 46.3863979,13.9216826 C46.7383297,13.8126471 47.0507502,13.6113782 47.3644661,13.440258 C47.6031536,13.3101303 48.1940967,12.7342082 48.3611024,13.0175814 C48.5484036,12.6523422 49.2482729,12.5091064 49.613591,12.3898227 C50.1475342,12.2156042 50.6767274,12.0431732 51.2153126,11.8826586 C51.6886932,11.7416869 52.1380001,11.5314807 52.6024205,11.3794268 C52.971733,11.2587132 53.6353296,10.9187368 54,11.0178817 Z M32,19 C31.6040932,19.3643568 31.3129852,19.6324515 31,19.9206383 C31.6714891,20.0852736 31.6714891,20.0852736 32,19 Z M24.9958551,17.3294494 C25.0356499,17.4358205 24.7758355,17.5441613 24.7741136,17.6337231 C24.9727052,17.6645838 25.0383284,17.7341846 24.9713659,17.8427882 C24.9577821,17.9092372 24.9438157,17.9756863 24.9302318,18.0421354 C24.9300405,18.3569148 24.7375712,18.6984841 24.6283267,19 C24.2963842,18.8278365 24.5435714,18.6132559 24.4825399,18.39815 C24.3933841,18.0842898 24.3063329,18.284031 24.1272561,18.0911186 C23.8603628,17.8037855 24.0635461,17.868396 24.2776347,17.5944578 C24.3746346,17.4706209 24.4318397,17.0714012 24.4410231,17.0628652 C24.6229697,16.891227 24.9103344,17.1013426 24.9958551,17.3294494 Z M37.9551875,16.95 L37.9551875,17.05 C38.0746875,16.9950154 38.0746875,16.9950154 37.9551875,16.95 Z M25.9563137,15.95 C26.0695137,15.9806912 26.0436137,15.9619381 26.0496137,16.05 C25.9672137,16.0262687 25.9362137,15.9929193 25.9563137,15.95 Z M57.009575,15.95 C56.9854503,15.9905962 56.9676863,16.0202981 56.95,16.05 C57.0185734,16.0388889 57.1007993,16.0206233 57.009575,15.95 Z M25.1504857,15 C25.7142815,15.1035792 26.1729277,14.9840022 25.936341,15.5629067 C26.0097918,15.3830645 25.0928208,15.9309946 25.0053446,15.9957842 L25,16 L25.0750824,15.500949 C25.1001592,15.3339886 25.125236,15.1670282 25.1504857,15 Z M10.05,15.95 C10.0095832,15.9646285 9.94566327,15.948108 9.95023212,16.05 C9.99411945,16.0060222 10.0221037,15.9780111 10.05,15.95 Z M33.95,14.95 L33.95,15.05 L34.05,15.0124215 L33.95,14.95 Z M26.05,15 C26.0272603,15.4061149 26.012983,15.6609018 25.9939813,16 C25.9152748,15.490735 25.9472039,15.2662137 26.05,15 Z M54.010042,14 C53.962437,14.0568182 53.9607143,14.6875 53.95,15 L54.05,14.8592172 C54.0366807,14.5729167 54.0233613,14.2863005 54.010042,14 Z M14.95,13.9676403 C14.9840954,13.9956687 15.0136183,14.0199845 15.05,14.05 C15.0482604,13.9366312 15.0482604,13.9366312 14.95,13.9676403 Z M35.0001896,11.2979938 C34.9891574,11.4132605 35.4630416,11.6862672 35.4948846,11.8565446 C35.5726116,12.2700205 35.0473273,12.6124942 35.5570662,13 C35.6540997,12.7713857 35.7889937,12.5388055 35.8509246,12.306737 C35.9126047,12.0760757 35.7546433,11.9659263 35.7832268,11.763666 C35.8138162,11.5457979 36.2465803,11.1883562 35.7967664,11.0353496 C35.4758289,10.9262237 35.0207497,11.0854989 35.0001896,11.2979938 Z M34.0425511,13 C33.9394511,13.5949889 33.9394511,13.5949889 33.9925511,14 C34.0072511,13.7047257 34.0204511,13.4430701 34.0425511,13 Z M34.2343158,12.2339949 C33.9166404,12.5457896 33.9690155,12.4666153 34.1158674,13 C34.4059451,12.6972748 34.7004545,12.4048447 35,12.1160914 C34.7199945,11.9067575 34.471414,12.0013745 34.2343158,12.2339949 Z M35.9760049,10.95 C35.9663168,10.9556734 35.9576485,10.9623782 35.95,10.9702292 C35.9695037,10.9968768 35.9889437,11.0234097 36.0083836,11.05 C36.073141,11.0201433 36.0623056,10.9867908 35.9760049,10.95 Z M36.0260707,11 C35.9136645,11.2798395 35.9519768,11.6491976 35.9775771,12 C36.0281893,11.6980943 36.0823915,11.3981946 36.0260707,11 Z M39.0015766,10 C38.9108477,10.371131 38.9582322,10.6146948 39.0041161,11 C39.0194107,10.980619 39.0347631,10.9612381 39.05,10.9418571 C39.0338973,10.6280012 39.0177947,10.3138559 39.0015766,10 Z M15.988775,11.05 C16.0755049,11.0344 16.0532799,11.0518875 16.0237962,10.9504601 C15.9389371,10.9456302 15.9272633,10.9788287 15.988775,11.05 Z M35.9941555,9.95 C35.9333934,9.96096618 35.9353326,9.99429952 36.0000319,10.05 C36.0685509,10.0369565 36.0666117,10.0036232 35.9941555,9.95 Z M35.0116379,8 C34.9910675,8.32843582 34.9704972,8.65657088 34.95,8.9850067 C35.1051196,9.1188473 35.0409928,8.32121745 35.0116379,8 Z M35.2599515,8 C35.1734164,8.29646465 35.0865351,8.59292929 35,8.88939394 C35.0678435,8.92626263 35.1360332,8.96313131 35.2042229,9 L36,8.18989899 L35.2599515,8 Z M36.0055748,7.95 C35.9214842,7.95779249 35.9301224,8.06266087 36.05,8.04872684 C36.0351916,8.01577387 36.020295,7.98288694 36.0055748,7.95 Z M12.0499791,7.96037707 L11.95,7.96037707 C11.95,8.08327707 12.051672,8.04727707 12.0499791,7.96037707 Z M35.9982234,2.95 C35.9779892,2.99190515 35.9639946,3.02097302 35.95,3.05 C36.015516,3.02542927 36.1100909,3.00322976 35.9982234,2.95 Z M36.0494667,2.00026882 L36.05,2 C35.9338215,2.03064516 35.9768247,2.57392473 35.95,3 C36.0488437,2.8936004 36.0318301,2.46294183 36.0479048,2.03936484 L36.0494667,2.00026882 Z M34.4290468,1.95 C34.3153259,2.02293233 34.4077119,2.03065998 34,1.99761905 C34.221374,2.08621554 34.7003327,1.99803676 35,2.05 C34.8095518,2.01666667 34.619495,1.98333333 34.4290468,1.95 Z M34,1.95 C34.1766419,2.02123015 34.3293433,2.06391558 35,2.04586359 C34.6570689,2.01295632 34.4027823,1.98862374 34,1.95 Z" id="Shape" fill="#0539ec" fill-rule="nonzero"></path>
                    </g>
                </g>
            </g>
        </g>
    </g>
</svg>